<?xml version="1.0" encoding="UTF-8" standalone="no"?>
<!DOCTYPE svg PUBLIC "-//W3C//DTD SVG 1.1//EN" "http://www.w3.org/Graphics/SVG/1.1/DTD/svg11.dtd">
<svg width="100%" height="100%" viewBox="0 0 50 50" version="1.1" xmlns="http://www.w3.org/2000/svg" xmlns:xlink="http://www.w3.org/1999/xlink" xml:space="preserve" xmlns:serif="http://www.serif.com/" style="fill-rule:evenodd;clip-rule:evenodd;stroke-miterlimit:10;">
    <g transform="matrix(1,0,0,1,-224.875,-197.412)">
        <g>
            <g transform="matrix(0.472568,0,0,0.472568,249.812,202.161)">
                <path d="M0,85.438C-23.593,85.438 -42.719,66.312 -42.719,42.719C-42.719,19.126 -23.593,0 0,0C23.593,0 42.719,19.126 42.719,42.719C42.719,66.312 23.593,85.438 0,85.438Z" style="fill:none;fill-rule:nonzero;stroke:white;stroke-width:2px;"/>
            </g>
            <g transform="matrix(0.082129,0,0,0.0804644,191.665,141.941)">
                <g transform="matrix(0.683962,0,0,0.683962,177.929,349.538)">
                    <rect x="563" y="794" width="424" height="312" style="fill:white;stroke:rgb(53,53,53);stroke-width:17px;stroke-linecap:round;stroke-linejoin:round;stroke-miterlimit:1.5;"/>
                </g>
                <g transform="matrix(-0.683962,8.37612e-17,-1.04702e-16,-0.854953,1240.12,1720.88)">
                    <path d="M776.5,800L985,968L568,968L776.5,800Z" style="fill:white;stroke:rgb(53,53,53);stroke-width:15.05px;stroke-linecap:round;stroke-linejoin:round;stroke-miterlimit:1.5;"/>
                </g>
            </g>
        </g>
    </g>
</svg>
