<?xml version="1.0" encoding="UTF-8" standalone="no"?><!DOCTYPE svg PUBLIC "-//W3C//DTD SVG 1.1//EN" "http://www.w3.org/Graphics/SVG/1.1/DTD/svg11.dtd"><svg width="100%" height="100%" viewBox="0 0 753 753" version="1.1" xmlns="http://www.w3.org/2000/svg" xmlns:xlink="http://www.w3.org/1999/xlink" xml:space="preserve" xmlns:serif="http://www.serif.com/" style="fill-rule:evenodd;clip-rule:evenodd;stroke-linejoin:round;stroke-miterlimit:2;"><path d="M376.039,-0c207.542,-0 376.039,168.498 376.039,376.039c0,207.542 -168.497,376.039 -376.039,376.039c-207.541,0 -376.039,-168.497 -376.039,-376.039c0,-207.541 168.498,-376.039 376.039,-376.039Zm-66.59,423.221l49.642,6.363c-7.829,30.067 -22.33,53.401 -43.504,70.003c-21.174,16.601 -48.219,24.902 -81.136,24.902c-41.458,-0 -74.331,-13.235 -98.619,-39.705c-24.287,-26.47 -36.431,-63.592 -36.431,-111.367c-0,-49.436 12.277,-87.803 36.832,-115.103c24.554,-27.3 56.404,-40.95 95.549,-40.95c37.899,-0 68.859,13.373 92.88,40.12c24.02,26.746 36.031,64.376 36.031,112.889c-0,2.951 -0.089,7.378 -0.267,13.281l-211.382,0c1.779,32.28 10.587,56.998 26.422,74.153c15.836,17.154 35.587,25.732 59.251,25.732c17.616,-0 32.651,-4.796 45.106,-14.388c12.455,-9.592 22.33,-24.902 29.626,-45.93Zm77.933,94.627l103.556,-152.732l-95.816,-141.112l60.052,0l43.504,68.896c8.185,13.097 14.768,24.072 19.751,32.926c7.829,-12.174 15.035,-22.965 21.618,-32.373l47.775,-69.449l57.382,0l-97.951,138.345l105.425,155.499l-58.985,0l-58.183,-91.307l-15.48,-24.626l-74.464,115.933l-58.184,0Zm-235.669,-175.144l158.269,0c-2.135,-24.718 -8.185,-43.256 -18.149,-55.614c-15.302,-19.184 -35.141,-28.776 -59.518,-28.776c-22.063,-0 -40.612,7.655 -55.648,22.965c-15.035,15.31 -23.353,35.785 -24.954,61.425Z" style="fill:#ddd;"/></svg>