<?xml version="1.0" encoding="UTF-8" standalone="no"?>
<!DOCTYPE svg PUBLIC "-//W3C//DTD SVG 1.1//EN" "http://www.w3.org/Graphics/SVG/1.1/DTD/svg11.dtd">
<svg width="100%" height="100%" viewBox="0 0 7362 8349" version="1.1" xmlns="http://www.w3.org/2000/svg" xmlns:xlink="http://www.w3.org/1999/xlink" xml:space="preserve" xmlns:serif="http://www.serif.com/" style="fill-rule:evenodd;clip-rule:evenodd;stroke-linejoin:round;stroke-miterlimit:2;">
    <g transform="matrix(1,0,0,1,0,-2043.29)">
        <g transform="matrix(4.16667,0,0,4.16667,0,0)">
            <path d="M882.265,2494L160.782,2293.71L0,490.389L1766.69,490.389L1605.74,2293.44L882.265,2494Z" style="fill:rgb(65,91,169);fill-rule:nonzero;"/>
        </g>
        <g transform="matrix(4.16667,0,0,4.16667,0,0)">
            <path d="M1467.95,2178.62L1605.48,637.834L883.345,637.834L883.345,2340.69L1467.95,2178.62Z" style="fill:rgb(70,102,176);fill-rule:nonzero;"/>
        </g>
        <g transform="matrix(4.16667,0,0,4.16667,0,0)">
            <path d="M883.345,1881.07L882.375,1881.32L636.06,1814.81L620.312,1638.42L398.29,1638.42L429.273,1985.69L882.327,2111.46L883.345,2111.18L883.345,1881.07ZM328.754,859.011L348.858,1080.18L883.345,1080.18L883.345,859.011L328.754,859.011ZM368.587,1306.66L388.407,1527.83L883.345,1527.83L883.345,1306.66L368.587,1306.66Z" style="fill:rgb(235,235,236);fill-rule:nonzero;"/>
        </g>
        <g transform="matrix(4.16667,0,0,4.16667,0,0)">
            <path d="M1396.69,1306.66L1436.61,859.011L882.583,859.011L882.583,1080.18L1194.23,1080.18L1174.11,1306.66L882.583,1306.66L882.583,1527.83L1154.93,1527.83L1129.25,1814.68L882.576,1881.25L882.576,2111.35L1335.99,1985.69L1339.31,1948.33L1391.3,1366.05L1396.69,1306.66Z" style="fill:white;fill-rule:nonzero;"/>
        </g>
    </g>
</svg>
