<?xml version="1.0" encoding="UTF-8" standalone="no"?><!DOCTYPE svg PUBLIC "-//W3C//DTD SVG 1.1//EN" "http://www.w3.org/Graphics/SVG/1.1/DTD/svg11.dtd"><svg width="100%" height="100%" viewBox="0 0 333 325" version="1.1" xmlns="http://www.w3.org/2000/svg" xmlns:xlink="http://www.w3.org/1999/xlink" xml:space="preserve" xmlns:serif="http://www.serif.com/" style="fill-rule:evenodd;clip-rule:evenodd;stroke-linejoin:round;stroke-miterlimit:2;"><g><path d="M60.185,2.083c-32.127,0 -58.102,25.975 -58.102,58.102l0,203.699c0,32.127 25.975,58.102 58.102,58.102l211.902,-0c32.127,-0 58.102,-25.975 58.102,-58.102l-0,-203.699c-0,-32.127 -25.975,-58.102 -58.102,-58.102l-211.902,0Zm5.195,13.671l201.375,0c27.224,0 49.626,22.402 49.626,49.626l-0,193.172c0,0.073 0,0.146 0,0.219c0,27.159 -22.331,49.514 -49.489,49.544l-201.512,-0c-27.342,-0 -49.626,-22.284 -49.626,-49.626l0,-193.309c0,-27.342 22.284,-49.626 49.626,-49.626Z" style="fill:#ddd;fill-rule:nonzero;stroke:#ddd;stroke-width:4.17px;"/><path d="M115.344,192.716l-10.827,40.985c-0.233,1.135 -0.684,1.395 -2.024,1.395l-20.069,-0c-1.367,-0 -1.572,-0.451 -1.367,-2.024l38.826,-135.958c0.683,-2.461 1.121,-4.621 1.34,-11.388c-0,-0.902 0.451,-1.367 1.134,-1.367l28.655,-0c0.902,-0 1.367,0.246 1.586,1.367l43.542,147.565c0.232,1.135 -0,1.805 -1.135,1.805l-22.557,-0c-1.135,-0 -1.805,-0.274 -2.023,-1.176l-11.279,-41.218l-43.843,-0l0.041,0.014Zm38.115,-22.216c-3.828,-15.12 -12.851,-48.231 -16.241,-64.254l-0.233,0c-2.925,15.995 -10.144,43.064 -15.79,64.254l32.264,0Zm61.52,-75.984c-0,-8.79 6.083,-13.985 13.985,-13.985c8.339,-0 13.986,5.632 13.986,13.985c-0,9.023 -5.879,13.986 -14.218,13.986c-8.203,-0 -13.808,-4.963 -13.808,-13.986l0.055,0Zm1.531,31.088c-0,-1.093 0.451,-1.504 1.586,-1.504l21.463,0c1.203,0 1.641,0.452 1.641,1.586l-0,107.933c-0,1.135 -0.219,1.586 -1.572,1.586l-21.191,0c-1.367,0 -1.818,-0.683 -1.818,-1.777l0,-107.837l-0.109,0.013Z" style="fill:#ddd;fill-rule:nonzero;"/></g></svg>