<?xml version="1.0" encoding="UTF-8" standalone="no"?><!DOCTYPE svg PUBLIC "-//W3C//DTD SVG 1.1//EN" "http://www.w3.org/Graphics/SVG/1.1/DTD/svg11.dtd"><svg width="100%" height="100%" viewBox="0 0 3473 3473" version="1.1" xmlns="http://www.w3.org/2000/svg" xmlns:xlink="http://www.w3.org/1999/xlink" xml:space="preserve" xmlns:serif="http://www.serif.com/" style="fill-rule:evenodd;clip-rule:evenodd;stroke-linejoin:round;stroke-miterlimit:2;"><rect x="0" y="0" width="3472.22" height="3472.22" style="fill:#ddd;fill-rule:nonzero;"/><path d="M1667.21,1285.81l166.558,0l0,287.544l-450.303,-0l-0,1279.3l-11.936,3.255c-16.276,4.34 -230.577,4.34 -276.693,-0.543l-36.892,-3.255l-0,-1278.75l-450.304,-0l-0,-287.544l142.687,-1.627c78.125,-1.085 278.862,-1.085 445.963,-0c167.101,1.085 378.689,1.627 470.92,1.627Zm1271.16,1431.21c-66.189,69.987 -137.261,109.049 -255.534,141.059c-51.541,14.106 -60.221,14.648 -176.324,14.106c-116.102,-0.543 -125.325,-0.543 -181.749,-15.191c-145.942,-37.435 -263.672,-110.677 -343.967,-214.301c-22.786,-29.297 -60.221,-90.061 -60.221,-97.657c-0,-2.17 5.425,-7.053 12.478,-10.308c7.053,-3.255 21.702,-12.478 33.637,-19.531c11.936,-7.053 33.638,-20.074 48.286,-27.669c14.648,-7.596 56.966,-32.552 93.858,-54.796c36.893,-22.244 70.53,-40.148 74.328,-40.148c3.797,0 10.85,7.596 16.276,16.819c32.552,54.796 108.507,124.783 162.218,148.654c33.094,14.106 106.336,29.84 141.601,29.84c32.552,-0 92.231,-14.106 124.241,-28.755c34.179,-15.733 51.54,-31.467 72.157,-62.934c14.106,-22.244 15.733,-28.212 15.191,-70.529c-0,-39.063 -2.17,-49.913 -13.021,-67.817c-30.382,-49.913 -71.615,-75.955 -238.715,-149.74c-172.526,-76.497 -250.109,-122.07 -313.043,-183.376c-46.658,-45.573 -55.881,-58.052 -85.178,-115.018c-37.977,-73.242 -42.86,-97.113 -43.403,-206.163c-0.542,-76.497 1.085,-101.454 9.223,-127.496c11.394,-39.062 48.286,-114.474 65.105,-133.463c34.722,-40.69 47.2,-53.169 71.614,-73.242c73.785,-60.764 188.802,-100.912 298.937,-104.71c12.478,0 53.711,2.171 92.231,4.883c110.677,9.223 186.089,36.35 258.789,94.401c54.796,43.403 137.804,145.4 129.666,158.963c-5.426,8.138 -221.897,152.452 -236.003,156.792c-8.681,2.713 -14.648,-0.542 -26.584,-14.648c-73.785,-88.433 -103.624,-107.422 -175.239,-111.762c-50.998,-3.255 -78.125,2.713 -112.305,25.499c-35.807,23.872 -53.168,60.221 -53.168,110.677c0.543,73.785 28.754,108.507 132.921,160.048c67.274,33.094 124.783,60.221 129.123,60.221c6.511,0 145.942,69.445 182.292,91.146c169.271,99.284 238.173,201.28 256.076,377.062c13.021,132.378 -24.414,253.363 -105.794,339.084Z" style="fill:#242424;fill-rule:nonzero;"/></svg>