<?xml version="1.0" encoding="UTF-8" standalone="no"?>
<!DOCTYPE svg PUBLIC "-//W3C//DTD SVG 1.1//EN" "http://www.w3.org/Graphics/SVG/1.1/DTD/svg11.dtd">
<svg width="100%" height="100%" viewBox="0 0 92 50" version="1.1" xmlns="http://www.w3.org/2000/svg" xmlns:xlink="http://www.w3.org/1999/xlink" xml:space="preserve" xmlns:serif="http://www.serif.com/" style="fill-rule:evenodd;clip-rule:evenodd;stroke-linejoin:round;stroke-miterlimit:2;">
    <g transform="matrix(1,0,0,1,-1,-0.498649)">
        <g transform="matrix(1,0,0,1,-81,-563.501)">
            <g transform="matrix(0.0746258,0,0,0.0746258,70.2982,500.079)">
                <g transform="matrix(874,0,0,874,158.513,1520.43)">
                    <path d="M-0.002,-0.115C-0.002,-0.153 0.007,-0.187 0.026,-0.216C0.045,-0.245 0.069,-0.271 0.097,-0.292C0.125,-0.314 0.155,-0.333 0.188,-0.348C0.22,-0.363 0.25,-0.376 0.278,-0.386C0.306,-0.396 0.33,-0.404 0.349,-0.411C0.368,-0.417 0.377,-0.422 0.377,-0.426C0.377,-0.449 0.376,-0.471 0.374,-0.493C0.371,-0.514 0.369,-0.536 0.366,-0.559C0.364,-0.581 0.361,-0.603 0.359,-0.625C0.357,-0.646 0.355,-0.668 0.355,-0.689L0.355,-0.753C0.382,-0.763 0.401,-0.762 0.413,-0.75C0.424,-0.738 0.426,-0.718 0.418,-0.689C0.421,-0.675 0.424,-0.653 0.429,-0.622C0.433,-0.591 0.438,-0.557 0.444,-0.519C0.449,-0.48 0.455,-0.44 0.461,-0.397C0.468,-0.355 0.473,-0.315 0.479,-0.276C0.485,-0.237 0.489,-0.203 0.493,-0.172C0.497,-0.142 0.5,-0.119 0.502,-0.104C0.503,-0.101 0.503,-0.095 0.504,-0.085C0.505,-0.076 0.505,-0.066 0.505,-0.055C0.506,-0.044 0.506,-0.035 0.506,-0.025C0.507,-0.016 0.507,-0.01 0.507,-0.006C0.482,-0.006 0.465,-0.007 0.457,-0.009C0.448,-0.011 0.442,-0.015 0.44,-0.021C0.438,-0.026 0.437,-0.035 0.437,-0.046C0.437,-0.057 0.433,-0.072 0.427,-0.092C0.403,-0.073 0.38,-0.057 0.358,-0.045C0.337,-0.033 0.315,-0.023 0.294,-0.015C0.272,-0.008 0.251,-0.002 0.229,0C0.207,0.003 0.184,0.005 0.159,0.005C0.138,0.005 0.118,0.003 0.099,-0C0.08,-0.004 0.063,-0.01 0.048,-0.02C0.033,-0.029 0.021,-0.041 0.012,-0.057C0.003,-0.072 -0.002,-0.092 -0.002,-0.115ZM0.083,-0.136C0.083,-0.125 0.085,-0.117 0.09,-0.11C0.094,-0.104 0.1,-0.098 0.107,-0.094C0.115,-0.089 0.122,-0.086 0.13,-0.084C0.139,-0.083 0.146,-0.082 0.154,-0.082C0.177,-0.082 0.202,-0.086 0.228,-0.095C0.254,-0.104 0.279,-0.116 0.301,-0.132C0.324,-0.148 0.342,-0.167 0.357,-0.189C0.372,-0.212 0.379,-0.236 0.379,-0.262C0.379,-0.282 0.375,-0.296 0.368,-0.304C0.361,-0.312 0.347,-0.315 0.327,-0.315C0.306,-0.315 0.282,-0.311 0.254,-0.301C0.227,-0.291 0.2,-0.278 0.174,-0.262C0.149,-0.245 0.127,-0.226 0.109,-0.205C0.092,-0.183 0.083,-0.16 0.083,-0.136Z" style="fill:white;fill-rule:nonzero;"/>
                </g>
                <g transform="matrix(874,0,0,874,621.374,1520.43)">
                    <path d="M-0.002,-0.115C-0.002,-0.153 0.007,-0.187 0.026,-0.216C0.045,-0.245 0.069,-0.271 0.097,-0.292C0.125,-0.314 0.155,-0.333 0.188,-0.348C0.22,-0.363 0.25,-0.376 0.278,-0.386C0.306,-0.396 0.33,-0.404 0.349,-0.411C0.368,-0.417 0.377,-0.422 0.377,-0.426C0.377,-0.449 0.376,-0.471 0.374,-0.493C0.371,-0.514 0.369,-0.536 0.366,-0.559C0.364,-0.581 0.361,-0.603 0.359,-0.625C0.357,-0.646 0.355,-0.668 0.355,-0.689L0.355,-0.753C0.382,-0.763 0.401,-0.762 0.413,-0.75C0.424,-0.738 0.426,-0.718 0.418,-0.689C0.421,-0.675 0.424,-0.653 0.429,-0.622C0.433,-0.591 0.438,-0.557 0.444,-0.519C0.449,-0.48 0.455,-0.44 0.461,-0.397C0.468,-0.355 0.473,-0.315 0.479,-0.276C0.485,-0.237 0.489,-0.203 0.493,-0.172C0.497,-0.142 0.5,-0.119 0.502,-0.104C0.503,-0.101 0.503,-0.095 0.504,-0.085C0.505,-0.076 0.505,-0.066 0.505,-0.055C0.506,-0.044 0.506,-0.035 0.506,-0.025C0.507,-0.016 0.507,-0.01 0.507,-0.006C0.482,-0.006 0.465,-0.007 0.457,-0.009C0.448,-0.011 0.442,-0.015 0.44,-0.021C0.438,-0.026 0.437,-0.035 0.437,-0.046C0.437,-0.057 0.433,-0.072 0.427,-0.092C0.403,-0.073 0.38,-0.057 0.358,-0.045C0.337,-0.033 0.315,-0.023 0.294,-0.015C0.272,-0.008 0.251,-0.002 0.229,0C0.207,0.003 0.184,0.005 0.159,0.005C0.138,0.005 0.118,0.003 0.099,-0C0.08,-0.004 0.063,-0.01 0.048,-0.02C0.033,-0.029 0.021,-0.041 0.012,-0.057C0.003,-0.072 -0.002,-0.092 -0.002,-0.115ZM0.083,-0.136C0.083,-0.125 0.085,-0.117 0.09,-0.11C0.094,-0.104 0.1,-0.098 0.107,-0.094C0.115,-0.089 0.122,-0.086 0.13,-0.084C0.139,-0.083 0.146,-0.082 0.154,-0.082C0.177,-0.082 0.202,-0.086 0.228,-0.095C0.254,-0.104 0.279,-0.116 0.301,-0.132C0.324,-0.148 0.342,-0.167 0.357,-0.189C0.372,-0.212 0.379,-0.236 0.379,-0.262C0.379,-0.282 0.375,-0.296 0.368,-0.304C0.361,-0.312 0.347,-0.315 0.327,-0.315C0.306,-0.315 0.282,-0.311 0.254,-0.301C0.227,-0.291 0.2,-0.278 0.174,-0.262C0.149,-0.245 0.127,-0.226 0.109,-0.205C0.092,-0.183 0.083,-0.16 0.083,-0.136Z" style="fill:white;fill-rule:nonzero;"/>
                </g>
                <g transform="matrix(874,0,0,874,1003.83,1520.43)">
                    <path d="M0.074,-0.317C0.074,-0.319 0.075,-0.323 0.075,-0.329C0.076,-0.334 0.076,-0.337 0.076,-0.338C0.087,-0.338 0.101,-0.339 0.119,-0.34C0.137,-0.342 0.156,-0.344 0.178,-0.345C0.199,-0.347 0.222,-0.349 0.245,-0.351C0.268,-0.353 0.29,-0.354 0.311,-0.354C0.331,-0.355 0.351,-0.355 0.368,-0.355C0.386,-0.355 0.399,-0.354 0.409,-0.353C0.421,-0.353 0.429,-0.351 0.434,-0.349C0.439,-0.346 0.441,-0.337 0.441,-0.322C0.422,-0.309 0.397,-0.3 0.368,-0.293C0.339,-0.287 0.309,-0.283 0.278,-0.28C0.248,-0.278 0.218,-0.276 0.189,-0.276C0.16,-0.276 0.136,-0.276 0.118,-0.275C0.101,-0.274 0.089,-0.278 0.083,-0.286C0.077,-0.295 0.074,-0.305 0.074,-0.317Z" style="fill:white;fill-rule:nonzero;"/>
                </g>
            </g>
        </g>
    </g>
</svg>
