<?xml version="1.0" encoding="UTF-8" standalone="no"?>
<!DOCTYPE svg PUBLIC "-//W3C//DTD SVG 1.1//EN" "http://www.w3.org/Graphics/SVG/1.1/DTD/svg11.dtd">
<svg width="100%" height="100%" viewBox="0 0 1932 1932" version="1.1" xmlns="http://www.w3.org/2000/svg" xmlns:xlink="http://www.w3.org/1999/xlink" xml:space="preserve" xmlns:serif="http://www.serif.com/" style="fill-rule:evenodd;clip-rule:evenodd;stroke-linejoin:round;stroke-miterlimit:2;">
    <g transform="matrix(1,0,0,1,-100,-100)">
        <g transform="matrix(1,0,0,1,-197.264,-256.792)">
            <g>
                <path d="M2228.95,606.792C2228.95,540.488 2202.61,476.899 2155.73,430.015C2108.84,383.131 2045.26,356.792 1978.95,356.792L547.264,356.792C480.96,356.792 417.372,383.131 370.488,430.015C323.604,476.899 297.264,540.488 297.264,606.792L297.264,2038.48C297.264,2104.78 323.604,2168.37 370.488,2215.26C417.372,2262.14 480.96,2288.48 547.264,2288.48L1978.95,2288.48C2045.26,2288.48 2108.84,2262.14 2155.73,2215.26C2202.61,2168.37 2228.95,2104.78 2228.95,2038.48L2228.95,606.792ZM343.185,1637.18C343.185,1591.87 354.513,1551.63 377.169,1516.47C399.826,1481.32 427.951,1450.65 461.544,1424.48C495.138,1398.31 531.466,1376.05 570.529,1357.68C609.591,1339.33 645.919,1324.09 679.513,1311.98C713.107,1299.87 741.232,1290.11 763.888,1282.68C786.544,1275.26 797.873,1269.21 797.873,1264.52C797.873,1237.18 796.505,1210.42 793.771,1184.25C791.037,1158.08 788.107,1131.71 784.982,1105.15C781.857,1078.58 778.927,1052.22 776.193,1026.05C773.458,999.873 772.091,973.896 772.091,948.115L772.091,871.943C804.123,860.224 826.974,861.396 840.646,875.459C854.318,889.521 856.466,913.74 847.091,948.115C850.216,965.302 854.513,992.256 859.982,1028.97C865.451,1065.69 871.505,1107.1 878.146,1153.19C884.787,1199.29 891.818,1247.72 899.24,1298.51C906.662,1349.29 913.693,1397.92 920.333,1444.4C926.974,1490.89 932.638,1532.3 937.326,1568.62C942.013,1604.95 945.529,1632.1 947.872,1650.07C948.654,1653.97 949.435,1661.59 950.216,1672.92C950.998,1684.25 951.583,1696.36 951.974,1709.25C952.365,1722.14 952.755,1734.05 953.146,1744.99C953.537,1755.93 953.732,1763.74 953.732,1768.43C924.044,1768.43 903.927,1767.26 893.38,1764.91C882.833,1762.57 876.193,1757.88 873.458,1750.85C870.724,1743.82 869.357,1733.66 869.357,1720.38C869.357,1707.1 865.451,1688.74 857.638,1665.3C828.732,1687.96 801.388,1706.71 775.607,1721.55C749.826,1736.4 724.044,1748.31 698.263,1757.3C672.482,1766.28 646.505,1772.53 620.333,1776.05C594.162,1779.56 566.232,1781.32 536.544,1781.32C511.544,1781.32 487.521,1779.17 464.474,1774.87C441.427,1770.58 420.919,1762.96 402.951,1752.02C384.982,1741.08 370.529,1726.24 359.591,1707.49C348.654,1688.74 343.185,1665.3 343.185,1637.18ZM997.091,1637.18C997.091,1591.87 1008.42,1551.63 1031.08,1516.47C1053.73,1481.32 1081.86,1450.65 1115.45,1424.48C1149.04,1398.31 1185.37,1376.05 1224.43,1357.68C1263.5,1339.33 1299.83,1324.09 1333.42,1311.98C1367.01,1299.87 1395.14,1290.11 1417.79,1282.68C1440.45,1275.26 1451.78,1269.21 1451.78,1264.52C1451.78,1237.18 1450.41,1210.42 1447.68,1184.25C1444.94,1158.08 1442.01,1131.71 1438.89,1105.15C1435.76,1078.58 1432.83,1052.22 1430.1,1026.05C1427.37,999.873 1426,973.896 1426,948.115L1426,871.943C1458.03,860.224 1480.88,861.396 1494.55,875.459C1508.22,889.521 1510.37,913.74 1501,948.115C1504.12,965.302 1508.42,992.256 1513.89,1028.97C1519.36,1065.69 1525.41,1107.1 1532.05,1153.19C1538.69,1199.29 1545.72,1247.72 1553.15,1298.51C1560.57,1349.29 1567.6,1397.92 1574.24,1444.4C1580.88,1490.89 1586.54,1532.3 1591.23,1568.62C1595.92,1604.95 1599.43,1632.1 1601.78,1650.07C1602.56,1653.97 1603.34,1661.59 1604.12,1672.92C1604.9,1684.25 1605.49,1696.36 1605.88,1709.25C1606.27,1722.14 1606.66,1734.05 1607.05,1744.99C1607.44,1755.93 1607.64,1763.74 1607.64,1768.43C1577.95,1768.43 1557.83,1767.26 1547.29,1764.91C1536.74,1762.57 1530.1,1757.88 1527.37,1750.85C1524.63,1743.82 1523.26,1733.66 1523.26,1720.38C1523.26,1707.1 1519.36,1688.74 1511.54,1665.3C1482.64,1687.96 1455.29,1706.71 1429.51,1721.55C1403.73,1736.4 1377.95,1748.31 1352.17,1757.3C1326.39,1766.28 1300.41,1772.53 1274.24,1776.05C1248.07,1779.56 1220.14,1781.32 1190.45,1781.32C1165.45,1781.32 1141.43,1779.17 1118.38,1774.87C1095.33,1770.58 1074.83,1762.96 1056.86,1752.02C1038.89,1741.08 1024.43,1726.24 1013.5,1707.49C1002.56,1688.74 997.091,1665.3 997.091,1637.18ZM445.138,1612.57C445.138,1625.07 447.873,1635.22 453.341,1643.04C458.81,1650.85 465.841,1657.49 474.435,1662.96C483.029,1668.43 492.208,1672.14 501.974,1674.09C511.74,1676.05 521.31,1677.02 530.685,1677.02C558.029,1677.02 587.521,1671.75 619.162,1661.2C650.802,1650.65 680.099,1635.81 707.052,1616.67C734.005,1597.53 756.271,1574.68 773.849,1548.12C791.427,1521.55 800.216,1492.65 800.216,1461.4C800.216,1437.18 795.919,1420.38 787.326,1411.01C778.732,1401.63 762.326,1396.94 738.107,1396.94C713.107,1396.94 684.005,1402.8 650.802,1414.52C617.599,1426.24 585.568,1441.87 554.708,1461.4C523.849,1480.93 497.872,1503.78 476.779,1529.95C455.685,1556.12 445.138,1583.66 445.138,1612.57ZM1099.04,1612.57C1099.04,1625.07 1101.78,1635.22 1107.25,1643.04C1112.72,1650.85 1119.75,1657.49 1128.34,1662.96C1136.93,1668.43 1146.12,1672.14 1155.88,1674.09C1165.65,1676.05 1175.22,1677.02 1184.59,1677.02C1211.93,1677.02 1241.43,1671.75 1273.07,1661.2C1304.71,1650.65 1334.01,1635.81 1360.96,1616.67C1387.91,1597.53 1410.18,1574.68 1427.76,1548.12C1445.33,1521.55 1454.12,1492.65 1454.12,1461.4C1454.12,1437.18 1449.83,1420.38 1441.23,1411.01C1432.64,1401.63 1416.23,1396.94 1392.01,1396.94C1367.01,1396.94 1337.91,1402.8 1304.71,1414.52C1271.51,1426.24 1239.47,1441.87 1208.62,1461.4C1177.76,1480.93 1151.78,1503.78 1130.68,1529.95C1109.59,1556.12 1099.04,1583.66 1099.04,1612.57ZM1742.4,1394.6C1742.4,1392.26 1742.8,1387.76 1743.58,1381.12C1744.36,1374.48 1744.75,1370.77 1744.75,1369.99C1757.25,1369.99 1774.24,1369.01 1795.73,1367.06C1817.21,1365.11 1840.84,1363.15 1866.62,1361.2C1892.4,1359.25 1919.16,1357.1 1946.9,1354.76C1974.63,1352.41 2001,1350.85 2026,1350.07C2051,1349.29 2074.05,1348.9 2095.14,1348.9C2116.23,1348.9 2132.64,1350.07 2144.36,1352.41C2158.42,1352.41 2168.38,1353.97 2174.24,1357.1C2180.1,1360.22 2183.03,1370.77 2183.03,1388.74C2159.59,1404.37 2130.3,1415.89 2095.14,1423.31C2059.98,1430.73 2024.05,1436.01 1987.33,1439.13C1950.61,1442.26 1914.87,1443.82 1880.1,1443.82C1845.33,1443.82 1817.01,1444.21 1795.14,1444.99C1774.05,1446.55 1759.98,1442.26 1752.95,1432.1C1745.92,1421.94 1742.4,1409.44 1742.4,1394.6Z" style="fill:white;"/>
            </g>
        </g>
    </g>
</svg>
