<?xml version="1.0" encoding="UTF-8" standalone="no"?>
<!DOCTYPE svg PUBLIC "-//W3C//DTD SVG 1.1//EN" "http://www.w3.org/Graphics/SVG/1.1/DTD/svg11.dtd">
<svg width="100%" height="100%" viewBox="0 0 1302 725" version="1.1" xmlns="http://www.w3.org/2000/svg" xmlns:xlink="http://www.w3.org/1999/xlink" xml:space="preserve" xmlns:serif="http://www.serif.com/" style="fill-rule:evenodd;clip-rule:evenodd;stroke-linejoin:round;stroke-miterlimit:2;">
    <g transform="matrix(1,0,0,1,-173,-310)">
        <g transform="matrix(1,0,0,1,-677,-1031)">
            <g transform="matrix(3.3555,0,0,3.3555,-1740.4,-3498.51)">
                <g transform="matrix(266.667,0,0,266.667,766.12,1643.33)">
                    <path d="M0.36,-0.036C0.36,-0.036 0.359,-0.035 0.358,-0.032C0.355,-0.031 0.354,-0.031 0.353,-0.034C0.352,-0.036 0.35,-0.035 0.347,-0.032L0.347,-0.036C0.347,-0.039 0.348,-0.041 0.349,-0.042C0.348,-0.044 0.346,-0.046 0.345,-0.047C0.344,-0.048 0.343,-0.05 0.342,-0.052C0.346,-0.061 0.347,-0.069 0.346,-0.078C0.345,-0.078 0.347,-0.079 0.351,-0.08C0.349,-0.082 0.348,-0.083 0.348,-0.083C0.347,-0.079 0.346,-0.077 0.346,-0.078C0.343,-0.079 0.341,-0.081 0.34,-0.084C0.341,-0.092 0.342,-0.1 0.345,-0.108C0.343,-0.109 0.342,-0.11 0.341,-0.112C0.342,-0.116 0.344,-0.119 0.345,-0.12C0.348,-0.124 0.35,-0.128 0.351,-0.131C0.352,-0.134 0.351,-0.138 0.35,-0.142C0.353,-0.144 0.356,-0.145 0.357,-0.146C0.356,-0.147 0.356,-0.149 0.356,-0.15C0.355,-0.151 0.355,-0.153 0.356,-0.155C0.357,-0.156 0.358,-0.158 0.359,-0.159C0.359,-0.16 0.359,-0.161 0.36,-0.162L0.36,-0.166C0.363,-0.167 0.364,-0.169 0.365,-0.172C0.365,-0.175 0.366,-0.177 0.367,-0.18C0.367,-0.181 0.366,-0.183 0.365,-0.186C0.367,-0.188 0.369,-0.19 0.37,-0.192C0.371,-0.193 0.371,-0.195 0.372,-0.196C0.373,-0.204 0.375,-0.21 0.376,-0.215C0.376,-0.22 0.375,-0.224 0.374,-0.227C0.372,-0.226 0.37,-0.225 0.367,-0.222C0.364,-0.219 0.361,-0.215 0.357,-0.209C0.356,-0.208 0.355,-0.206 0.355,-0.203C0.354,-0.202 0.352,-0.2 0.35,-0.199C0.349,-0.198 0.347,-0.196 0.344,-0.194C0.343,-0.193 0.342,-0.191 0.341,-0.19C0.339,-0.188 0.338,-0.185 0.338,-0.182C0.334,-0.181 0.331,-0.179 0.328,-0.176C0.327,-0.175 0.327,-0.174 0.327,-0.173C0.325,-0.171 0.323,-0.169 0.321,-0.167C0.319,-0.164 0.318,-0.161 0.317,-0.158C0.316,-0.157 0.314,-0.156 0.313,-0.155C0.312,-0.154 0.31,-0.153 0.308,-0.152C0.307,-0.151 0.306,-0.149 0.303,-0.145C0.302,-0.144 0.301,-0.143 0.3,-0.142C0.299,-0.141 0.298,-0.14 0.298,-0.139C0.297,-0.137 0.294,-0.134 0.291,-0.131C0.288,-0.129 0.286,-0.126 0.285,-0.121C0.282,-0.12 0.28,-0.118 0.277,-0.116C0.274,-0.113 0.27,-0.111 0.267,-0.108L0.267,-0.106C0.266,-0.105 0.266,-0.103 0.267,-0.102C0.269,-0.103 0.271,-0.105 0.274,-0.108C0.273,-0.107 0.273,-0.105 0.273,-0.103C0.272,-0.102 0.271,-0.101 0.27,-0.1C0.269,-0.099 0.267,-0.098 0.264,-0.096C0.263,-0.098 0.261,-0.1 0.258,-0.101L0.248,-0.096C0.249,-0.095 0.25,-0.095 0.251,-0.094C0.251,-0.093 0.252,-0.091 0.253,-0.09C0.25,-0.088 0.248,-0.086 0.247,-0.085C0.245,-0.083 0.243,-0.083 0.24,-0.084L0.24,-0.079C0.237,-0.078 0.234,-0.075 0.233,-0.072C0.232,-0.069 0.23,-0.066 0.227,-0.064C0.227,-0.061 0.228,-0.059 0.229,-0.056C0.228,-0.057 0.227,-0.058 0.226,-0.058C0.225,-0.058 0.224,-0.058 0.223,-0.059C0.222,-0.057 0.222,-0.056 0.222,-0.055C0.221,-0.054 0.221,-0.053 0.22,-0.052L0.205,-0.04C0.204,-0.039 0.205,-0.037 0.206,-0.036C0.205,-0.036 0.203,-0.036 0.203,-0.035L0.199,-0.035C0.198,-0.033 0.198,-0.031 0.198,-0.029C0.195,-0.026 0.193,-0.024 0.19,-0.021C0.187,-0.019 0.185,-0.016 0.183,-0.013L0.177,-0.013C0.175,-0.013 0.173,-0.011 0.17,-0.008C0.171,-0.007 0.171,-0.006 0.171,-0.005C0.166,0 0.16,0.004 0.155,0.007C0.149,0.011 0.143,0.015 0.138,0.019C0.138,0.02 0.139,0.021 0.14,0.024C0.137,0.025 0.134,0.026 0.133,0.029C0.131,0.032 0.128,0.034 0.125,0.035C0.122,0.036 0.12,0.038 0.118,0.039C0.116,0.041 0.113,0.043 0.11,0.044C0.111,0.046 0.112,0.047 0.114,0.048C0.111,0.049 0.109,0.05 0.108,0.049C0.107,0.049 0.105,0.048 0.103,0.047C0.1,0.048 0.098,0.048 0.095,0.048C0.092,0.048 0.09,0.046 0.088,0.043C0.087,0.044 0.085,0.046 0.084,0.047C0.083,0.048 0.081,0.05 0.078,0.052L0.071,0.052C0.069,0.053 0.065,0.054 0.062,0.056C0.063,0.055 0.064,0.054 0.064,0.053L0.065,0.052C0.068,0.051 0.072,0.049 0.076,0.048C0.072,0.046 0.065,0.048 0.054,0.053C0.054,0.053 0.053,0.052 0.051,0.05L0.057,0.044C0.057,0.043 0.056,0.042 0.054,0.042C0.053,0.043 0.051,0.044 0.051,0.045C0.05,0.046 0.048,0.047 0.047,0.048L0.041,0.036C0.042,0.034 0.044,0.032 0.046,0.031C0.045,0.03 0.043,0.03 0.042,0.029C0.041,0.029 0.039,0.029 0.038,0.028L0.026,0.014C0.025,0.012 0.024,0.01 0.023,0.007C0.022,0.004 0.023,0.001 0.026,-0.002C0.025,-0.005 0.025,-0.008 0.024,-0.011C0.023,-0.013 0.023,-0.015 0.022,-0.018C0.024,-0.021 0.025,-0.024 0.025,-0.027C0.024,-0.03 0.024,-0.032 0.024,-0.035L0.024,-0.041C0.026,-0.044 0.027,-0.047 0.027,-0.05C0.026,-0.053 0.026,-0.056 0.026,-0.059C0.027,-0.06 0.027,-0.062 0.027,-0.065C0.028,-0.068 0.029,-0.07 0.029,-0.072C0.028,-0.074 0.028,-0.076 0.029,-0.079L0.031,-0.08C0.032,-0.079 0.033,-0.077 0.034,-0.076C0.037,-0.079 0.038,-0.081 0.039,-0.082C0.04,-0.085 0.042,-0.089 0.043,-0.092C0.044,-0.095 0.045,-0.099 0.044,-0.102C0.044,-0.104 0.044,-0.106 0.045,-0.108C0.046,-0.11 0.046,-0.112 0.047,-0.115C0.049,-0.117 0.05,-0.119 0.05,-0.12L0.05,-0.124L0.054,-0.128C0.055,-0.131 0.056,-0.135 0.057,-0.139C0.058,-0.142 0.059,-0.146 0.06,-0.149L0.072,-0.16C0.073,-0.159 0.075,-0.158 0.076,-0.158C0.078,-0.159 0.079,-0.161 0.08,-0.164C0.081,-0.166 0.083,-0.168 0.087,-0.169C0.086,-0.168 0.085,-0.167 0.084,-0.166C0.083,-0.165 0.083,-0.164 0.082,-0.163C0.082,-0.162 0.082,-0.162 0.083,-0.161C0.084,-0.162 0.085,-0.162 0.086,-0.163C0.086,-0.164 0.088,-0.165 0.089,-0.166C0.089,-0.167 0.089,-0.168 0.088,-0.169C0.087,-0.17 0.087,-0.171 0.087,-0.172C0.088,-0.173 0.09,-0.175 0.091,-0.177C0.092,-0.179 0.094,-0.181 0.095,-0.184C0.096,-0.185 0.095,-0.186 0.094,-0.187L0.109,-0.197L0.109,-0.199C0.108,-0.2 0.108,-0.201 0.108,-0.202C0.109,-0.203 0.11,-0.204 0.11,-0.205C0.11,-0.206 0.111,-0.207 0.112,-0.208C0.116,-0.21 0.119,-0.213 0.122,-0.216C0.124,-0.219 0.126,-0.223 0.129,-0.226C0.131,-0.229 0.134,-0.233 0.137,-0.236L0.156,-0.255C0.159,-0.258 0.161,-0.261 0.163,-0.265C0.168,-0.268 0.173,-0.273 0.178,-0.279C0.183,-0.284 0.188,-0.289 0.195,-0.292C0.196,-0.293 0.196,-0.295 0.196,-0.298C0.201,-0.3 0.206,-0.303 0.212,-0.306C0.213,-0.307 0.214,-0.31 0.215,-0.314L0.219,-0.318C0.222,-0.32 0.223,-0.322 0.223,-0.324C0.228,-0.328 0.233,-0.332 0.238,-0.336C0.243,-0.34 0.247,-0.344 0.252,-0.347C0.253,-0.348 0.253,-0.348 0.254,-0.349C0.254,-0.35 0.255,-0.351 0.256,-0.352C0.257,-0.353 0.259,-0.355 0.26,-0.357C0.261,-0.358 0.264,-0.359 0.267,-0.36C0.268,-0.361 0.268,-0.361 0.269,-0.362C0.27,-0.362 0.27,-0.363 0.271,-0.364C0.274,-0.367 0.278,-0.37 0.281,-0.373C0.284,-0.375 0.287,-0.378 0.288,-0.383C0.292,-0.384 0.296,-0.386 0.3,-0.39C0.304,-0.394 0.308,-0.396 0.311,-0.395C0.314,-0.399 0.315,-0.401 0.316,-0.402L0.352,-0.421L0.359,-0.421L0.365,-0.427C0.368,-0.425 0.373,-0.425 0.378,-0.427C0.381,-0.428 0.383,-0.429 0.386,-0.429C0.388,-0.428 0.39,-0.427 0.391,-0.426C0.393,-0.423 0.395,-0.422 0.398,-0.421C0.401,-0.42 0.404,-0.42 0.408,-0.419C0.407,-0.417 0.407,-0.415 0.407,-0.414C0.407,-0.412 0.408,-0.41 0.411,-0.409C0.412,-0.408 0.412,-0.408 0.412,-0.407C0.413,-0.406 0.414,-0.405 0.415,-0.404L0.414,-0.403C0.414,-0.402 0.414,-0.402 0.413,-0.401L0.417,-0.401C0.418,-0.4 0.419,-0.4 0.421,-0.4C0.42,-0.398 0.42,-0.396 0.419,-0.395C0.418,-0.394 0.418,-0.392 0.417,-0.391L0.421,-0.382C0.424,-0.383 0.427,-0.384 0.43,-0.384C0.433,-0.384 0.435,-0.386 0.437,-0.39C0.437,-0.393 0.436,-0.394 0.433,-0.395L0.435,-0.395C0.436,-0.395 0.436,-0.395 0.436,-0.396L0.436,-0.397C0.438,-0.396 0.44,-0.395 0.443,-0.392C0.442,-0.391 0.443,-0.389 0.446,-0.388C0.446,-0.389 0.446,-0.389 0.447,-0.389L0.447,-0.392L0.443,-0.392C0.444,-0.394 0.446,-0.396 0.448,-0.397C0.449,-0.398 0.451,-0.399 0.452,-0.402C0.452,-0.402 0.454,-0.403 0.458,-0.406C0.457,-0.406 0.457,-0.406 0.458,-0.407C0.457,-0.407 0.456,-0.407 0.455,-0.406L0.453,-0.406C0.453,-0.407 0.452,-0.409 0.451,-0.41C0.452,-0.411 0.453,-0.412 0.454,-0.412C0.455,-0.413 0.455,-0.413 0.456,-0.414C0.457,-0.413 0.457,-0.413 0.457,-0.412C0.457,-0.412 0.458,-0.411 0.459,-0.41L0.466,-0.422C0.465,-0.422 0.465,-0.422 0.465,-0.423L0.465,-0.424C0.466,-0.425 0.466,-0.426 0.466,-0.427C0.465,-0.427 0.465,-0.427 0.465,-0.428C0.468,-0.43 0.47,-0.432 0.472,-0.434C0.474,-0.436 0.476,-0.438 0.478,-0.439C0.475,-0.439 0.473,-0.439 0.472,-0.44C0.473,-0.441 0.474,-0.442 0.475,-0.443C0.476,-0.443 0.478,-0.443 0.479,-0.444C0.476,-0.445 0.475,-0.446 0.475,-0.446C0.476,-0.449 0.477,-0.451 0.478,-0.452C0.479,-0.453 0.48,-0.454 0.481,-0.455C0.482,-0.455 0.482,-0.455 0.483,-0.456C0.486,-0.463 0.489,-0.47 0.492,-0.477C0.495,-0.484 0.499,-0.49 0.504,-0.496C0.505,-0.497 0.505,-0.499 0.506,-0.5C0.507,-0.502 0.507,-0.504 0.507,-0.505L0.502,-0.505C0.504,-0.506 0.505,-0.507 0.506,-0.507L0.51,-0.511C0.51,-0.511 0.511,-0.512 0.512,-0.515C0.513,-0.516 0.515,-0.516 0.516,-0.516C0.517,-0.516 0.519,-0.516 0.52,-0.517C0.519,-0.518 0.518,-0.519 0.518,-0.52C0.518,-0.523 0.518,-0.525 0.519,-0.527C0.518,-0.527 0.517,-0.527 0.516,-0.528L0.512,-0.528C0.515,-0.531 0.517,-0.533 0.519,-0.534C0.52,-0.535 0.522,-0.537 0.525,-0.539C0.526,-0.542 0.527,-0.545 0.527,-0.548C0.527,-0.55 0.528,-0.553 0.53,-0.556C0.533,-0.561 0.535,-0.565 0.537,-0.568C0.538,-0.569 0.539,-0.57 0.539,-0.571C0.54,-0.574 0.541,-0.577 0.543,-0.58C0.545,-0.583 0.547,-0.586 0.548,-0.589C0.549,-0.591 0.55,-0.593 0.551,-0.594C0.552,-0.595 0.553,-0.597 0.554,-0.599C0.555,-0.6 0.557,-0.602 0.558,-0.604C0.559,-0.606 0.56,-0.608 0.559,-0.611C0.558,-0.612 0.558,-0.612 0.559,-0.613C0.56,-0.613 0.56,-0.613 0.56,-0.614C0.561,-0.617 0.563,-0.621 0.565,-0.624C0.567,-0.626 0.569,-0.63 0.57,-0.634C0.571,-0.637 0.573,-0.64 0.576,-0.642C0.576,-0.645 0.576,-0.646 0.575,-0.647C0.578,-0.651 0.58,-0.655 0.582,-0.66C0.584,-0.664 0.585,-0.668 0.584,-0.672C0.587,-0.676 0.589,-0.68 0.591,-0.683C0.59,-0.69 0.59,-0.697 0.593,-0.705C0.596,-0.712 0.598,-0.72 0.6,-0.727C0.601,-0.728 0.603,-0.73 0.605,-0.731C0.607,-0.732 0.609,-0.734 0.611,-0.736C0.616,-0.739 0.616,-0.742 0.613,-0.745C0.614,-0.746 0.615,-0.748 0.616,-0.749C0.617,-0.75 0.618,-0.752 0.62,-0.754L0.627,-0.754C0.626,-0.752 0.626,-0.75 0.627,-0.749C0.628,-0.748 0.628,-0.746 0.629,-0.744C0.633,-0.747 0.637,-0.749 0.641,-0.751C0.643,-0.75 0.645,-0.75 0.648,-0.749C0.65,-0.748 0.651,-0.746 0.652,-0.743C0.653,-0.738 0.656,-0.736 0.661,-0.736L0.661,-0.731C0.66,-0.73 0.66,-0.728 0.66,-0.726L0.663,-0.726C0.664,-0.725 0.665,-0.725 0.666,-0.725C0.667,-0.72 0.667,-0.716 0.668,-0.713C0.668,-0.71 0.668,-0.706 0.669,-0.703C0.67,-0.702 0.671,-0.702 0.672,-0.702C0.673,-0.702 0.673,-0.702 0.674,-0.701C0.673,-0.696 0.673,-0.692 0.674,-0.688C0.675,-0.688 0.676,-0.688 0.677,-0.687C0.678,-0.686 0.679,-0.686 0.68,-0.686C0.68,-0.685 0.68,-0.684 0.681,-0.683L0.681,-0.68C0.679,-0.677 0.675,-0.673 0.669,-0.667C0.67,-0.666 0.671,-0.664 0.671,-0.661C0.669,-0.66 0.667,-0.658 0.666,-0.657C0.665,-0.655 0.663,-0.653 0.662,-0.65C0.661,-0.648 0.659,-0.644 0.654,-0.638C0.653,-0.637 0.653,-0.637 0.652,-0.636C0.651,-0.636 0.651,-0.636 0.65,-0.635L0.65,-0.631C0.649,-0.631 0.649,-0.631 0.649,-0.63C0.648,-0.629 0.647,-0.627 0.646,-0.626C0.645,-0.625 0.643,-0.623 0.641,-0.622C0.642,-0.617 0.639,-0.612 0.632,-0.607L0.634,-0.605L0.635,-0.605C0.633,-0.602 0.63,-0.599 0.627,-0.596C0.625,-0.593 0.622,-0.591 0.621,-0.588C0.621,-0.587 0.621,-0.586 0.622,-0.586C0.622,-0.586 0.622,-0.585 0.621,-0.584C0.62,-0.583 0.619,-0.581 0.618,-0.579C0.617,-0.577 0.616,-0.575 0.615,-0.574C0.616,-0.574 0.617,-0.573 0.617,-0.571C0.616,-0.57 0.615,-0.57 0.614,-0.57L0.609,-0.57L0.599,-0.558C0.598,-0.557 0.597,-0.557 0.597,-0.557C0.596,-0.557 0.595,-0.557 0.594,-0.556L0.595,-0.556L0.595,-0.554C0.596,-0.555 0.597,-0.556 0.597,-0.557C0.597,-0.557 0.598,-0.557 0.599,-0.558C0.599,-0.557 0.6,-0.557 0.602,-0.557L0.596,-0.551L0.598,-0.551C0.6,-0.552 0.602,-0.554 0.603,-0.555C0.604,-0.556 0.606,-0.556 0.608,-0.557C0.605,-0.554 0.602,-0.55 0.6,-0.546C0.597,-0.542 0.594,-0.538 0.591,-0.535C0.59,-0.534 0.589,-0.533 0.588,-0.532C0.587,-0.531 0.585,-0.53 0.583,-0.529C0.585,-0.529 0.587,-0.528 0.588,-0.526L0.583,-0.526C0.58,-0.521 0.577,-0.517 0.574,-0.512C0.571,-0.511 0.57,-0.51 0.57,-0.509L0.571,-0.509C0.571,-0.51 0.572,-0.511 0.574,-0.512L0.578,-0.512C0.576,-0.509 0.575,-0.505 0.574,-0.502C0.573,-0.499 0.571,-0.495 0.568,-0.492C0.567,-0.493 0.565,-0.494 0.562,-0.494C0.562,-0.492 0.56,-0.489 0.556,-0.485L0.564,-0.485C0.563,-0.482 0.562,-0.48 0.561,-0.478C0.56,-0.476 0.559,-0.473 0.557,-0.47L0.557,-0.474C0.556,-0.475 0.556,-0.477 0.556,-0.478L0.545,-0.47C0.548,-0.471 0.55,-0.472 0.551,-0.472C0.552,-0.471 0.553,-0.47 0.554,-0.469C0.554,-0.469 0.555,-0.469 0.556,-0.468C0.552,-0.465 0.549,-0.464 0.546,-0.463C0.547,-0.462 0.547,-0.461 0.547,-0.46C0.546,-0.459 0.546,-0.457 0.545,-0.456C0.544,-0.454 0.543,-0.452 0.542,-0.45L0.541,-0.45C0.541,-0.451 0.541,-0.452 0.542,-0.453L0.542,-0.455L0.541,-0.455C0.54,-0.454 0.54,-0.452 0.539,-0.451C0.538,-0.45 0.536,-0.448 0.535,-0.445C0.536,-0.449 0.536,-0.451 0.537,-0.452C0.535,-0.45 0.534,-0.449 0.534,-0.449C0.533,-0.448 0.531,-0.446 0.528,-0.445C0.529,-0.444 0.531,-0.441 0.533,-0.438C0.531,-0.439 0.529,-0.439 0.526,-0.439C0.525,-0.438 0.525,-0.436 0.524,-0.435C0.523,-0.434 0.521,-0.432 0.52,-0.431L0.517,-0.431L0.517,-0.434L0.516,-0.433C0.516,-0.432 0.515,-0.432 0.514,-0.431L0.517,-0.431C0.518,-0.43 0.52,-0.43 0.521,-0.429C0.522,-0.428 0.523,-0.428 0.525,-0.427C0.526,-0.429 0.528,-0.431 0.531,-0.434C0.532,-0.432 0.532,-0.43 0.531,-0.429C0.529,-0.427 0.527,-0.425 0.526,-0.424C0.523,-0.425 0.52,-0.424 0.517,-0.422C0.518,-0.421 0.519,-0.42 0.519,-0.42C0.519,-0.419 0.519,-0.419 0.518,-0.418C0.517,-0.418 0.517,-0.418 0.516,-0.419C0.515,-0.418 0.515,-0.417 0.515,-0.416C0.515,-0.415 0.515,-0.414 0.514,-0.413C0.516,-0.415 0.517,-0.417 0.518,-0.418C0.521,-0.418 0.522,-0.417 0.522,-0.416C0.521,-0.413 0.519,-0.41 0.517,-0.407C0.515,-0.404 0.513,-0.401 0.511,-0.398C0.509,-0.399 0.509,-0.401 0.51,-0.404C0.512,-0.406 0.512,-0.407 0.509,-0.407C0.508,-0.406 0.508,-0.406 0.507,-0.405C0.507,-0.404 0.507,-0.402 0.506,-0.401L0.504,-0.401C0.504,-0.4 0.504,-0.4 0.503,-0.4C0.503,-0.399 0.503,-0.397 0.502,-0.396L0.502,-0.39C0.501,-0.391 0.5,-0.392 0.499,-0.392C0.498,-0.392 0.497,-0.393 0.496,-0.394C0.491,-0.391 0.489,-0.387 0.488,-0.384C0.487,-0.38 0.485,-0.376 0.483,-0.371C0.484,-0.372 0.485,-0.372 0.485,-0.373L0.487,-0.373L0.487,-0.377L0.496,-0.39C0.498,-0.388 0.498,-0.386 0.497,-0.383C0.495,-0.38 0.495,-0.378 0.497,-0.377L0.487,-0.368C0.484,-0.367 0.482,-0.366 0.481,-0.366C0.48,-0.365 0.478,-0.363 0.477,-0.36C0.481,-0.361 0.485,-0.363 0.489,-0.366C0.492,-0.368 0.496,-0.371 0.501,-0.374C0.5,-0.371 0.498,-0.368 0.497,-0.365C0.495,-0.362 0.493,-0.36 0.492,-0.358C0.491,-0.358 0.49,-0.357 0.488,-0.355C0.488,-0.357 0.487,-0.358 0.486,-0.359L0.485,-0.358C0.484,-0.358 0.484,-0.357 0.483,-0.356L0.483,-0.355C0.484,-0.354 0.484,-0.354 0.485,-0.354C0.486,-0.354 0.487,-0.354 0.488,-0.353C0.489,-0.352 0.49,-0.352 0.491,-0.351C0.491,-0.35 0.492,-0.349 0.493,-0.348C0.488,-0.347 0.483,-0.345 0.48,-0.344C0.479,-0.343 0.477,-0.341 0.476,-0.34C0.475,-0.338 0.475,-0.336 0.476,-0.334C0.477,-0.334 0.478,-0.334 0.479,-0.335L0.482,-0.335C0.481,-0.332 0.479,-0.33 0.477,-0.33C0.476,-0.33 0.474,-0.329 0.473,-0.328L0.467,-0.316C0.462,-0.313 0.459,-0.309 0.459,-0.304L0.459,-0.301C0.457,-0.296 0.455,-0.292 0.453,-0.286C0.45,-0.281 0.448,-0.276 0.445,-0.271L0.446,-0.27C0.445,-0.269 0.445,-0.269 0.446,-0.268C0.449,-0.269 0.451,-0.27 0.452,-0.271C0.452,-0.267 0.452,-0.264 0.451,-0.263C0.454,-0.264 0.455,-0.264 0.456,-0.265C0.455,-0.262 0.453,-0.26 0.452,-0.258C0.451,-0.256 0.449,-0.254 0.447,-0.252C0.447,-0.253 0.447,-0.254 0.448,-0.255L0.448,-0.258L0.441,-0.254C0.444,-0.254 0.446,-0.253 0.447,-0.252C0.446,-0.249 0.445,-0.247 0.445,-0.246C0.446,-0.243 0.445,-0.239 0.442,-0.232C0.441,-0.233 0.439,-0.233 0.438,-0.233C0.439,-0.234 0.44,-0.235 0.441,-0.236C0.441,-0.237 0.442,-0.239 0.443,-0.24L0.433,-0.24C0.431,-0.239 0.429,-0.238 0.427,-0.235L0.428,-0.234C0.428,-0.233 0.429,-0.233 0.43,-0.232C0.428,-0.23 0.427,-0.228 0.427,-0.227C0.426,-0.226 0.425,-0.224 0.424,-0.222C0.424,-0.221 0.424,-0.219 0.423,-0.218C0.422,-0.217 0.422,-0.215 0.423,-0.214L0.418,-0.209C0.417,-0.205 0.417,-0.201 0.418,-0.198C0.417,-0.198 0.415,-0.197 0.412,-0.196C0.414,-0.196 0.416,-0.195 0.417,-0.194C0.417,-0.192 0.417,-0.19 0.418,-0.187C0.419,-0.184 0.417,-0.181 0.413,-0.178C0.412,-0.177 0.41,-0.176 0.408,-0.175C0.406,-0.175 0.404,-0.174 0.403,-0.173C0.403,-0.167 0.403,-0.163 0.404,-0.161C0.405,-0.16 0.406,-0.16 0.406,-0.159C0.407,-0.158 0.408,-0.156 0.409,-0.155C0.408,-0.152 0.406,-0.149 0.404,-0.146C0.402,-0.142 0.402,-0.139 0.403,-0.136L0.402,-0.136L0.4,-0.134C0.401,-0.133 0.402,-0.133 0.403,-0.132C0.403,-0.131 0.404,-0.131 0.405,-0.13L0.395,-0.12C0.39,-0.107 0.389,-0.097 0.392,-0.092L0.386,-0.086C0.386,-0.084 0.387,-0.081 0.388,-0.077C0.387,-0.076 0.385,-0.076 0.384,-0.076C0.383,-0.076 0.381,-0.075 0.38,-0.074C0.381,-0.067 0.383,-0.059 0.384,-0.05C0.381,-0.05 0.379,-0.05 0.378,-0.049C0.377,-0.049 0.375,-0.048 0.371,-0.046L0.38,-0.046C0.381,-0.045 0.381,-0.043 0.381,-0.042L0.375,-0.032L0.371,-0.036C0.372,-0.037 0.372,-0.038 0.373,-0.039C0.374,-0.04 0.374,-0.04 0.375,-0.041C0.374,-0.042 0.372,-0.042 0.37,-0.042C0.368,-0.042 0.366,-0.041 0.363,-0.04C0.362,-0.04 0.361,-0.04 0.36,-0.039C0.359,-0.038 0.357,-0.038 0.356,-0.037C0.358,-0.036 0.36,-0.036 0.361,-0.036L0.36,-0.036ZM0.437,-0.376C0.436,-0.376 0.436,-0.376 0.436,-0.377L0.433,-0.377L0.432,-0.376L0.437,-0.376L0.437,-0.372L0.439,-0.373C0.438,-0.374 0.437,-0.375 0.437,-0.376ZM0.397,-0.252C0.394,-0.25 0.393,-0.247 0.393,-0.244C0.395,-0.245 0.396,-0.247 0.396,-0.248C0.396,-0.249 0.396,-0.251 0.397,-0.252C0.4,-0.253 0.401,-0.254 0.4,-0.254L0.4,-0.256C0.399,-0.255 0.398,-0.253 0.397,-0.252ZM0.325,-0.337L0.322,-0.337C0.321,-0.336 0.32,-0.336 0.319,-0.336C0.315,-0.331 0.311,-0.327 0.307,-0.324C0.302,-0.321 0.298,-0.318 0.294,-0.314C0.293,-0.313 0.293,-0.312 0.293,-0.311C0.293,-0.31 0.293,-0.309 0.292,-0.308C0.291,-0.307 0.289,-0.306 0.288,-0.305C0.286,-0.304 0.285,-0.302 0.284,-0.301C0.284,-0.298 0.282,-0.296 0.278,-0.293C0.275,-0.29 0.273,-0.288 0.272,-0.285C0.27,-0.283 0.268,-0.281 0.265,-0.28C0.264,-0.278 0.263,-0.276 0.263,-0.275L0.262,-0.276C0.263,-0.277 0.263,-0.279 0.264,-0.281C0.264,-0.282 0.265,-0.284 0.266,-0.286C0.265,-0.285 0.263,-0.284 0.261,-0.283C0.258,-0.282 0.256,-0.281 0.255,-0.28C0.256,-0.279 0.257,-0.277 0.257,-0.276C0.256,-0.275 0.256,-0.274 0.255,-0.273C0.254,-0.272 0.254,-0.271 0.254,-0.27C0.252,-0.269 0.251,-0.267 0.251,-0.264C0.248,-0.263 0.245,-0.263 0.243,-0.263C0.241,-0.263 0.238,-0.261 0.235,-0.258C0.236,-0.257 0.236,-0.255 0.235,-0.254C0.234,-0.252 0.234,-0.25 0.233,-0.247C0.232,-0.246 0.231,-0.244 0.229,-0.243C0.227,-0.241 0.225,-0.239 0.223,-0.238C0.222,-0.236 0.222,-0.234 0.221,-0.232C0.22,-0.229 0.22,-0.227 0.219,-0.226C0.218,-0.225 0.216,-0.224 0.215,-0.224C0.216,-0.229 0.217,-0.233 0.217,-0.235L0.216,-0.235C0.215,-0.232 0.213,-0.228 0.212,-0.225C0.21,-0.222 0.208,-0.217 0.205,-0.212C0.205,-0.214 0.205,-0.216 0.204,-0.217C0.204,-0.218 0.204,-0.219 0.205,-0.22C0.204,-0.217 0.202,-0.215 0.2,-0.214C0.198,-0.212 0.196,-0.21 0.195,-0.208C0.195,-0.207 0.196,-0.206 0.199,-0.205C0.194,-0.202 0.189,-0.199 0.184,-0.194C0.184,-0.191 0.184,-0.189 0.183,-0.187C0.183,-0.184 0.181,-0.182 0.178,-0.181C0.178,-0.182 0.177,-0.184 0.176,-0.188C0.175,-0.187 0.175,-0.185 0.174,-0.184C0.173,-0.182 0.173,-0.181 0.174,-0.18C0.173,-0.177 0.173,-0.175 0.174,-0.173C0.173,-0.172 0.17,-0.17 0.167,-0.167C0.165,-0.167 0.163,-0.166 0.162,-0.165C0.161,-0.164 0.159,-0.162 0.158,-0.161C0.157,-0.156 0.156,-0.151 0.153,-0.145C0.152,-0.144 0.152,-0.144 0.152,-0.143C0.151,-0.142 0.15,-0.141 0.147,-0.14C0.151,-0.139 0.153,-0.138 0.152,-0.138C0.15,-0.135 0.148,-0.133 0.146,-0.132C0.144,-0.13 0.142,-0.128 0.141,-0.126C0.139,-0.125 0.137,-0.125 0.136,-0.125C0.135,-0.124 0.133,-0.123 0.13,-0.122C0.129,-0.121 0.129,-0.119 0.129,-0.117C0.128,-0.116 0.129,-0.115 0.131,-0.115C0.134,-0.116 0.135,-0.117 0.136,-0.117C0.137,-0.117 0.138,-0.116 0.139,-0.115C0.138,-0.114 0.136,-0.113 0.134,-0.112C0.132,-0.111 0.13,-0.11 0.128,-0.109C0.127,-0.106 0.126,-0.102 0.125,-0.1C0.124,-0.097 0.122,-0.093 0.121,-0.089C0.12,-0.092 0.12,-0.095 0.12,-0.097C0.118,-0.096 0.116,-0.094 0.113,-0.091L0.115,-0.091C0.115,-0.09 0.115,-0.09 0.116,-0.09L0.106,-0.078C0.106,-0.075 0.106,-0.072 0.107,-0.071C0.106,-0.07 0.105,-0.07 0.105,-0.07C0.104,-0.07 0.103,-0.069 0.102,-0.068L0.102,-0.065C0.103,-0.064 0.102,-0.062 0.101,-0.061C0.1,-0.058 0.099,-0.055 0.098,-0.052C0.097,-0.049 0.097,-0.047 0.098,-0.044C0.097,-0.043 0.097,-0.042 0.096,-0.042C0.095,-0.041 0.094,-0.041 0.094,-0.04C0.096,-0.038 0.098,-0.036 0.1,-0.035C0.102,-0.034 0.104,-0.032 0.106,-0.031C0.108,-0.032 0.112,-0.033 0.119,-0.036C0.118,-0.035 0.118,-0.035 0.117,-0.034C0.117,-0.033 0.117,-0.031 0.116,-0.03C0.121,-0.031 0.126,-0.032 0.131,-0.034L0.135,-0.042C0.136,-0.042 0.137,-0.042 0.138,-0.043L0.14,-0.043L0.147,-0.053C0.148,-0.054 0.149,-0.056 0.149,-0.058C0.149,-0.06 0.15,-0.062 0.151,-0.065C0.156,-0.065 0.161,-0.065 0.164,-0.066C0.165,-0.068 0.166,-0.07 0.167,-0.072C0.168,-0.074 0.17,-0.076 0.171,-0.079L0.18,-0.084C0.18,-0.084 0.181,-0.083 0.184,-0.082C0.184,-0.086 0.184,-0.089 0.183,-0.09L0.181,-0.088C0.18,-0.089 0.178,-0.09 0.177,-0.09C0.178,-0.093 0.179,-0.096 0.18,-0.098C0.181,-0.1 0.183,-0.102 0.186,-0.103C0.187,-0.104 0.189,-0.104 0.19,-0.105C0.191,-0.106 0.193,-0.106 0.194,-0.106C0.195,-0.107 0.197,-0.11 0.198,-0.113C0.205,-0.116 0.21,-0.116 0.213,-0.113C0.214,-0.114 0.214,-0.115 0.215,-0.116C0.216,-0.116 0.216,-0.117 0.217,-0.118C0.216,-0.119 0.216,-0.121 0.216,-0.122C0.216,-0.123 0.216,-0.124 0.215,-0.125C0.218,-0.128 0.222,-0.13 0.225,-0.131C0.228,-0.132 0.23,-0.135 0.231,-0.138L0.234,-0.138C0.237,-0.141 0.239,-0.143 0.241,-0.145C0.243,-0.146 0.245,-0.148 0.246,-0.15C0.247,-0.152 0.249,-0.154 0.251,-0.155C0.252,-0.156 0.254,-0.158 0.256,-0.16C0.255,-0.161 0.255,-0.162 0.255,-0.163C0.258,-0.166 0.259,-0.168 0.26,-0.169L0.265,-0.169C0.267,-0.172 0.269,-0.174 0.272,-0.177C0.274,-0.179 0.276,-0.182 0.278,-0.185C0.279,-0.185 0.28,-0.186 0.283,-0.187C0.284,-0.188 0.285,-0.19 0.285,-0.191C0.285,-0.192 0.286,-0.193 0.287,-0.194C0.29,-0.197 0.292,-0.199 0.295,-0.202C0.297,-0.204 0.299,-0.207 0.302,-0.21C0.303,-0.213 0.305,-0.216 0.308,-0.219C0.311,-0.221 0.313,-0.224 0.314,-0.227C0.314,-0.226 0.315,-0.227 0.317,-0.229C0.318,-0.23 0.32,-0.231 0.321,-0.232C0.322,-0.233 0.322,-0.233 0.323,-0.234C0.324,-0.237 0.327,-0.24 0.33,-0.243C0.333,-0.246 0.335,-0.248 0.337,-0.251L0.337,-0.257C0.338,-0.258 0.34,-0.259 0.342,-0.259C0.343,-0.259 0.345,-0.26 0.346,-0.263C0.349,-0.264 0.352,-0.267 0.355,-0.271C0.358,-0.274 0.361,-0.277 0.364,-0.28C0.363,-0.281 0.361,-0.281 0.359,-0.279C0.356,-0.276 0.354,-0.276 0.352,-0.277C0.354,-0.28 0.356,-0.282 0.359,-0.283C0.361,-0.284 0.364,-0.286 0.367,-0.287C0.368,-0.288 0.368,-0.29 0.368,-0.292C0.368,-0.293 0.368,-0.295 0.369,-0.296C0.371,-0.295 0.373,-0.296 0.375,-0.297C0.377,-0.298 0.379,-0.299 0.38,-0.3C0.379,-0.301 0.378,-0.303 0.379,-0.304C0.379,-0.305 0.378,-0.307 0.377,-0.308C0.377,-0.309 0.377,-0.31 0.378,-0.311C0.379,-0.312 0.379,-0.313 0.38,-0.314C0.384,-0.316 0.387,-0.317 0.389,-0.318C0.388,-0.319 0.388,-0.322 0.388,-0.325C0.387,-0.325 0.387,-0.325 0.387,-0.326L0.384,-0.326C0.386,-0.343 0.384,-0.357 0.379,-0.368C0.378,-0.369 0.377,-0.37 0.376,-0.37C0.375,-0.37 0.374,-0.37 0.373,-0.371C0.368,-0.368 0.363,-0.365 0.359,-0.362C0.354,-0.359 0.35,-0.356 0.345,-0.353C0.344,-0.351 0.342,-0.349 0.34,-0.347C0.337,-0.346 0.335,-0.344 0.334,-0.342C0.331,-0.341 0.329,-0.341 0.326,-0.341L0.324,-0.337L0.325,-0.337ZM0.108,-0.179C0.107,-0.18 0.106,-0.182 0.105,-0.185C0.106,-0.186 0.108,-0.187 0.11,-0.19C0.107,-0.189 0.106,-0.188 0.105,-0.188C0.104,-0.188 0.103,-0.188 0.102,-0.187C0.1,-0.184 0.098,-0.182 0.096,-0.18C0.094,-0.178 0.092,-0.176 0.091,-0.173C0.093,-0.174 0.095,-0.175 0.097,-0.175C0.099,-0.176 0.101,-0.177 0.102,-0.18C0.104,-0.179 0.106,-0.179 0.108,-0.179ZM0.377,-0.227C0.381,-0.23 0.383,-0.234 0.384,-0.236C0.384,-0.239 0.384,-0.243 0.385,-0.247C0.383,-0.244 0.381,-0.241 0.38,-0.239C0.378,-0.238 0.376,-0.236 0.375,-0.234C0.376,-0.233 0.376,-0.232 0.376,-0.231C0.376,-0.23 0.376,-0.228 0.377,-0.227ZM0.372,-0.166C0.373,-0.167 0.375,-0.169 0.376,-0.171C0.377,-0.172 0.376,-0.174 0.375,-0.175L0.365,-0.164C0.367,-0.163 0.37,-0.16 0.373,-0.157C0.374,-0.159 0.374,-0.161 0.374,-0.162C0.373,-0.163 0.373,-0.165 0.372,-0.166ZM0.427,-0.365C0.426,-0.362 0.425,-0.36 0.425,-0.359C0.425,-0.358 0.426,-0.356 0.427,-0.355L0.433,-0.365L0.427,-0.365ZM0.369,-0.284C0.372,-0.285 0.374,-0.287 0.375,-0.288C0.376,-0.289 0.377,-0.291 0.377,-0.293C0.374,-0.293 0.372,-0.292 0.369,-0.29C0.369,-0.289 0.369,-0.288 0.37,-0.287C0.37,-0.286 0.37,-0.285 0.369,-0.284ZM0.281,-0.17C0.282,-0.171 0.283,-0.173 0.284,-0.174C0.285,-0.175 0.286,-0.177 0.287,-0.179C0.286,-0.18 0.286,-0.18 0.285,-0.18L0.279,-0.174C0.279,-0.174 0.28,-0.173 0.281,-0.17ZM0.071,0.035C0.071,0.031 0.071,0.028 0.07,0.026C0.068,0.03 0.066,0.033 0.064,0.036C0.067,0.036 0.069,0.036 0.071,0.035ZM0.454,-0.305C0.451,-0.304 0.45,-0.303 0.45,-0.302C0.45,-0.301 0.45,-0.3 0.449,-0.299C0.45,-0.298 0.45,-0.297 0.45,-0.296C0.451,-0.298 0.452,-0.3 0.452,-0.301C0.452,-0.302 0.453,-0.303 0.454,-0.305ZM0.508,-0.413C0.509,-0.414 0.51,-0.416 0.51,-0.417C0.511,-0.418 0.512,-0.42 0.513,-0.421C0.512,-0.42 0.51,-0.419 0.509,-0.419C0.508,-0.419 0.507,-0.419 0.506,-0.418C0.506,-0.416 0.507,-0.414 0.508,-0.413ZM0.374,-0.085C0.375,-0.084 0.376,-0.083 0.376,-0.082C0.375,-0.081 0.375,-0.08 0.375,-0.079L0.381,-0.088C0.38,-0.087 0.379,-0.086 0.378,-0.086C0.377,-0.086 0.375,-0.086 0.374,-0.085ZM0.423,-0.37C0.424,-0.366 0.426,-0.366 0.429,-0.37L0.423,-0.37ZM0.044,-0.084L0.046,-0.084C0.046,-0.084 0.047,-0.085 0.048,-0.088C0.048,-0.089 0.048,-0.09 0.049,-0.091L0.047,-0.091L0.044,-0.084ZM0.115,-0.103L0.115,-0.101C0.114,-0.1 0.114,-0.099 0.114,-0.098C0.115,-0.099 0.117,-0.1 0.117,-0.1C0.118,-0.1 0.119,-0.1 0.12,-0.101C0.119,-0.102 0.117,-0.103 0.115,-0.103ZM0.436,-0.265C0.438,-0.268 0.439,-0.269 0.439,-0.27L0.435,-0.27C0.435,-0.269 0.435,-0.269 0.436,-0.268C0.437,-0.267 0.437,-0.266 0.436,-0.265ZM0.384,-0.215L0.384,-0.209C0.387,-0.21 0.388,-0.211 0.388,-0.211C0.388,-0.212 0.388,-0.212 0.387,-0.213C0.386,-0.214 0.385,-0.214 0.384,-0.215ZM0.144,-0.146L0.143,-0.146L0.143,-0.143L0.144,-0.143L0.144,-0.146ZM0.468,-0.335L0.467,-0.335C0.467,-0.333 0.466,-0.332 0.464,-0.331C0.465,-0.33 0.466,-0.33 0.467,-0.33C0.467,-0.331 0.467,-0.332 0.468,-0.333L0.468,-0.335ZM0.412,-0.28C0.411,-0.277 0.41,-0.276 0.41,-0.277L0.41,-0.274C0.411,-0.275 0.412,-0.275 0.412,-0.275C0.412,-0.276 0.412,-0.276 0.411,-0.277C0.411,-0.278 0.411,-0.279 0.412,-0.28ZM0.417,-0.366C0.418,-0.367 0.419,-0.367 0.42,-0.367C0.419,-0.368 0.419,-0.368 0.42,-0.369C0.42,-0.37 0.42,-0.37 0.419,-0.371L0.418,-0.371L0.418,-0.369C0.417,-0.368 0.417,-0.367 0.417,-0.366ZM0.382,-0.194C0.381,-0.193 0.381,-0.192 0.381,-0.192L0.381,-0.191C0.381,-0.19 0.381,-0.19 0.382,-0.19C0.382,-0.19 0.382,-0.189 0.381,-0.188L0.383,-0.19L0.383,-0.192C0.382,-0.192 0.382,-0.193 0.382,-0.194ZM0.12,-0.116L0.12,-0.118L0.115,-0.118L0.115,-0.116L0.12,-0.116ZM0.172,-0.18C0.172,-0.181 0.172,-0.181 0.171,-0.181L0.169,-0.18C0.169,-0.179 0.169,-0.179 0.168,-0.178C0.17,-0.179 0.171,-0.179 0.172,-0.18ZM0.275,-0.174L0.273,-0.173L0.274,-0.172C0.273,-0.171 0.274,-0.171 0.275,-0.171C0.276,-0.171 0.276,-0.171 0.276,-0.172C0.274,-0.172 0.274,-0.173 0.275,-0.174ZM0.294,-0.182L0.292,-0.184C0.292,-0.183 0.291,-0.182 0.289,-0.181C0.29,-0.181 0.291,-0.181 0.291,-0.18C0.292,-0.181 0.293,-0.182 0.294,-0.182ZM0.464,-0.326C0.464,-0.325 0.463,-0.325 0.462,-0.325L0.464,-0.323L0.464,-0.326ZM0.418,-0.34L0.42,-0.342L0.418,-0.342L0.418,-0.34ZM0.352,-0.094L0.353,-0.094C0.353,-0.095 0.353,-0.096 0.354,-0.097L0.353,-0.097C0.352,-0.096 0.352,-0.095 0.352,-0.094ZM0.476,-0.356C0.477,-0.357 0.477,-0.358 0.476,-0.358L0.473,-0.355L0.475,-0.355L0.476,-0.356ZM0.422,-0.358L0.42,-0.358C0.419,-0.355 0.418,-0.354 0.418,-0.354L0.42,-0.354C0.42,-0.354 0.421,-0.355 0.422,-0.358ZM0.442,-0.277C0.443,-0.278 0.444,-0.278 0.444,-0.278L0.443,-0.28C0.442,-0.28 0.442,-0.279 0.442,-0.278L0.442,-0.277ZM0.447,-0.284L0.448,-0.286L0.446,-0.286L0.446,-0.285C0.446,-0.284 0.446,-0.284 0.447,-0.284ZM0.15,-0.151L0.15,-0.15C0.15,-0.15 0.151,-0.151 0.152,-0.152L0.153,-0.154L0.15,-0.151ZM0.438,-0.233L0.438,-0.232L0.434,-0.228C0.435,-0.227 0.435,-0.226 0.435,-0.226C0.436,-0.226 0.437,-0.226 0.438,-0.227C0.437,-0.224 0.435,-0.221 0.434,-0.218C0.432,-0.215 0.43,-0.211 0.428,-0.208L0.428,-0.205L0.42,-0.205C0.423,-0.208 0.425,-0.212 0.427,-0.215C0.428,-0.218 0.43,-0.221 0.431,-0.224L0.431,-0.229C0.434,-0.234 0.436,-0.235 0.438,-0.233ZM0.467,-0.311C0.468,-0.312 0.469,-0.313 0.472,-0.314C0.473,-0.315 0.473,-0.316 0.472,-0.317C0.471,-0.318 0.471,-0.319 0.472,-0.32C0.473,-0.319 0.474,-0.319 0.474,-0.319C0.474,-0.318 0.474,-0.318 0.475,-0.318C0.474,-0.315 0.474,-0.313 0.473,-0.312C0.472,-0.311 0.47,-0.311 0.467,-0.311ZM0.457,-0.419C0.456,-0.418 0.456,-0.418 0.456,-0.417C0.455,-0.416 0.454,-0.416 0.453,-0.415L0.449,-0.415L0.449,-0.418C0.448,-0.419 0.448,-0.42 0.448,-0.421C0.449,-0.42 0.451,-0.42 0.452,-0.42C0.453,-0.42 0.455,-0.42 0.457,-0.419ZM0.464,-0.298C0.466,-0.295 0.466,-0.292 0.464,-0.289C0.463,-0.29 0.461,-0.291 0.46,-0.294L0.464,-0.298ZM0.404,-0.161C0.405,-0.165 0.406,-0.168 0.405,-0.17C0.408,-0.169 0.409,-0.168 0.408,-0.167C0.408,-0.166 0.408,-0.164 0.407,-0.162C0.406,-0.162 0.405,-0.162 0.404,-0.161ZM0.386,-0.067C0.387,-0.066 0.388,-0.066 0.388,-0.066C0.388,-0.065 0.388,-0.065 0.389,-0.064C0.386,-0.064 0.385,-0.065 0.386,-0.067ZM0.503,-0.378L0.498,-0.378C0.498,-0.379 0.498,-0.379 0.499,-0.38L0.504,-0.38C0.503,-0.379 0.503,-0.379 0.503,-0.378ZM0.396,-0.11C0.397,-0.112 0.397,-0.114 0.398,-0.115C0.398,-0.116 0.398,-0.118 0.399,-0.119C0.4,-0.116 0.399,-0.113 0.396,-0.11ZM0.464,-0.298C0.461,-0.298 0.46,-0.299 0.462,-0.302C0.465,-0.302 0.465,-0.301 0.464,-0.298ZM0.512,-0.392L0.509,-0.392C0.509,-0.391 0.509,-0.391 0.508,-0.391C0.507,-0.392 0.507,-0.393 0.508,-0.394C0.509,-0.394 0.51,-0.394 0.511,-0.395C0.511,-0.394 0.511,-0.393 0.512,-0.392ZM0.381,-0.042C0.382,-0.043 0.383,-0.044 0.383,-0.045C0.383,-0.046 0.383,-0.047 0.384,-0.048C0.385,-0.047 0.386,-0.046 0.385,-0.045C0.384,-0.043 0.382,-0.043 0.381,-0.042ZM0.426,-0.2L0.424,-0.2C0.423,-0.199 0.422,-0.199 0.421,-0.199L0.421,-0.2C0.422,-0.2 0.423,-0.2 0.424,-0.201C0.425,-0.202 0.426,-0.202 0.427,-0.202L0.426,-0.2ZM0.442,-0.409L0.443,-0.408C0.442,-0.408 0.442,-0.408 0.442,-0.407L0.441,-0.407L0.441,-0.408L0.442,-0.409ZM0.029,-0.079C0.03,-0.081 0.03,-0.083 0.03,-0.085L0.032,-0.086C0.031,-0.083 0.03,-0.081 0.031,-0.08L0.029,-0.079ZM0.363,-0.04L0.366,-0.04C0.365,-0.037 0.363,-0.036 0.36,-0.036L0.361,-0.036C0.361,-0.036 0.362,-0.037 0.363,-0.04ZM0.473,-0.328L0.478,-0.328C0.475,-0.325 0.473,-0.325 0.473,-0.328ZM0.457,-0.419C0.457,-0.42 0.457,-0.42 0.458,-0.421C0.459,-0.421 0.459,-0.421 0.459,-0.422L0.46,-0.421C0.458,-0.42 0.457,-0.419 0.457,-0.419ZM0.46,-0.431L0.461,-0.431L0.462,-0.43C0.461,-0.43 0.46,-0.429 0.459,-0.428C0.46,-0.429 0.46,-0.43 0.46,-0.431ZM0.545,-0.449C0.545,-0.448 0.544,-0.446 0.543,-0.445L0.541,-0.445C0.542,-0.446 0.543,-0.448 0.543,-0.449L0.545,-0.449ZM0.496,-0.497C0.497,-0.496 0.497,-0.495 0.497,-0.494L0.496,-0.493C0.495,-0.494 0.495,-0.495 0.494,-0.496L0.495,-0.496C0.496,-0.496 0.496,-0.496 0.496,-0.497ZM0.416,-0.166C0.415,-0.167 0.415,-0.167 0.416,-0.168L0.417,-0.169C0.417,-0.168 0.417,-0.168 0.418,-0.168L0.418,-0.166L0.416,-0.166ZM0.12,-0.074C0.119,-0.073 0.117,-0.072 0.116,-0.071C0.115,-0.07 0.113,-0.069 0.112,-0.068C0.113,-0.07 0.114,-0.072 0.114,-0.073C0.114,-0.074 0.115,-0.076 0.116,-0.078C0.117,-0.077 0.118,-0.077 0.118,-0.077C0.118,-0.076 0.119,-0.075 0.12,-0.074ZM0.194,-0.193C0.191,-0.19 0.188,-0.186 0.185,-0.181C0.185,-0.182 0.184,-0.184 0.183,-0.185C0.186,-0.187 0.188,-0.19 0.191,-0.194C0.192,-0.193 0.193,-0.193 0.194,-0.193ZM0.167,-0.167L0.169,-0.167C0.168,-0.165 0.168,-0.163 0.169,-0.162C0.169,-0.16 0.168,-0.158 0.165,-0.155C0.166,-0.158 0.166,-0.16 0.167,-0.162L0.167,-0.167ZM0.129,-0.044L0.135,-0.05C0.136,-0.051 0.136,-0.052 0.137,-0.053L0.143,-0.053C0.141,-0.052 0.139,-0.05 0.138,-0.049C0.137,-0.048 0.135,-0.047 0.132,-0.047C0.132,-0.045 0.132,-0.044 0.133,-0.043L0.129,-0.041L0.129,-0.044ZM0.179,-0.17C0.18,-0.171 0.18,-0.173 0.181,-0.174C0.182,-0.176 0.182,-0.178 0.183,-0.18C0.184,-0.177 0.183,-0.174 0.179,-0.17ZM0.164,-0.109C0.166,-0.112 0.169,-0.114 0.172,-0.113C0.17,-0.112 0.169,-0.112 0.168,-0.111C0.167,-0.11 0.165,-0.11 0.164,-0.109ZM0.119,-0.036C0.119,-0.037 0.12,-0.039 0.121,-0.04C0.122,-0.04 0.122,-0.04 0.123,-0.039C0.123,-0.038 0.124,-0.038 0.125,-0.037C0.122,-0.036 0.12,-0.036 0.119,-0.036ZM0.179,-0.17C0.179,-0.17 0.178,-0.169 0.176,-0.167C0.176,-0.168 0.175,-0.168 0.174,-0.169C0.175,-0.169 0.176,-0.169 0.177,-0.17L0.179,-0.17ZM0.324,-0.337L0.325,-0.336C0.325,-0.335 0.325,-0.335 0.326,-0.334L0.324,-0.332C0.325,-0.334 0.325,-0.336 0.325,-0.337L0.324,-0.337ZM0.174,-0.085L0.172,-0.085L0.173,-0.086L0.175,-0.086L0.174,-0.085Z" style="fill:white;fill-rule:nonzero;"/>
                </g>
                <g transform="matrix(266.667,0,0,266.667,871.72,1643.33)">
                    <path d="M0.36,-0.036C0.36,-0.036 0.359,-0.035 0.358,-0.032C0.355,-0.031 0.354,-0.031 0.353,-0.034C0.352,-0.036 0.35,-0.035 0.347,-0.032L0.347,-0.036C0.347,-0.039 0.348,-0.041 0.349,-0.042C0.348,-0.044 0.346,-0.046 0.345,-0.047C0.344,-0.048 0.343,-0.05 0.342,-0.052C0.346,-0.061 0.347,-0.069 0.346,-0.078C0.345,-0.078 0.347,-0.079 0.351,-0.08C0.349,-0.082 0.348,-0.083 0.348,-0.083C0.347,-0.079 0.346,-0.077 0.346,-0.078C0.343,-0.079 0.341,-0.081 0.34,-0.084C0.341,-0.092 0.342,-0.1 0.345,-0.108C0.343,-0.109 0.342,-0.11 0.341,-0.112C0.342,-0.116 0.344,-0.119 0.345,-0.12C0.348,-0.124 0.35,-0.128 0.351,-0.131C0.352,-0.134 0.351,-0.138 0.35,-0.142C0.353,-0.144 0.356,-0.145 0.357,-0.146C0.356,-0.147 0.356,-0.149 0.356,-0.15C0.355,-0.151 0.355,-0.153 0.356,-0.155C0.357,-0.156 0.358,-0.158 0.359,-0.159C0.359,-0.16 0.359,-0.161 0.36,-0.162L0.36,-0.166C0.363,-0.167 0.364,-0.169 0.365,-0.172C0.365,-0.175 0.366,-0.177 0.367,-0.18C0.367,-0.181 0.366,-0.183 0.365,-0.186C0.367,-0.188 0.369,-0.19 0.37,-0.192C0.371,-0.193 0.371,-0.195 0.372,-0.196C0.373,-0.204 0.375,-0.21 0.376,-0.215C0.376,-0.22 0.375,-0.224 0.374,-0.227C0.372,-0.226 0.37,-0.225 0.367,-0.222C0.364,-0.219 0.361,-0.215 0.357,-0.209C0.356,-0.208 0.355,-0.206 0.355,-0.203C0.354,-0.202 0.352,-0.2 0.35,-0.199C0.349,-0.198 0.347,-0.196 0.344,-0.194C0.343,-0.193 0.342,-0.191 0.341,-0.19C0.339,-0.188 0.338,-0.185 0.338,-0.182C0.334,-0.181 0.331,-0.179 0.328,-0.176C0.327,-0.175 0.327,-0.174 0.327,-0.173C0.325,-0.171 0.323,-0.169 0.321,-0.167C0.319,-0.164 0.318,-0.161 0.317,-0.158C0.316,-0.157 0.314,-0.156 0.313,-0.155C0.312,-0.154 0.31,-0.153 0.308,-0.152C0.307,-0.151 0.306,-0.149 0.303,-0.145C0.302,-0.144 0.301,-0.143 0.3,-0.142C0.299,-0.141 0.298,-0.14 0.298,-0.139C0.297,-0.137 0.294,-0.134 0.291,-0.131C0.288,-0.129 0.286,-0.126 0.285,-0.121C0.282,-0.12 0.28,-0.118 0.277,-0.116C0.274,-0.113 0.27,-0.111 0.267,-0.108L0.267,-0.106C0.266,-0.105 0.266,-0.103 0.267,-0.102C0.269,-0.103 0.271,-0.105 0.274,-0.108C0.273,-0.107 0.273,-0.105 0.273,-0.103C0.272,-0.102 0.271,-0.101 0.27,-0.1C0.269,-0.099 0.267,-0.098 0.264,-0.096C0.263,-0.098 0.261,-0.1 0.258,-0.101L0.248,-0.096C0.249,-0.095 0.25,-0.095 0.251,-0.094C0.251,-0.093 0.252,-0.091 0.253,-0.09C0.25,-0.088 0.248,-0.086 0.247,-0.085C0.245,-0.083 0.243,-0.083 0.24,-0.084L0.24,-0.079C0.237,-0.078 0.234,-0.075 0.233,-0.072C0.232,-0.069 0.23,-0.066 0.227,-0.064C0.227,-0.061 0.228,-0.059 0.229,-0.056C0.228,-0.057 0.227,-0.058 0.226,-0.058C0.225,-0.058 0.224,-0.058 0.223,-0.059C0.222,-0.057 0.222,-0.056 0.222,-0.055C0.221,-0.054 0.221,-0.053 0.22,-0.052L0.205,-0.04C0.204,-0.039 0.205,-0.037 0.206,-0.036C0.205,-0.036 0.203,-0.036 0.203,-0.035L0.199,-0.035C0.198,-0.033 0.198,-0.031 0.198,-0.029C0.195,-0.026 0.193,-0.024 0.19,-0.021C0.187,-0.019 0.185,-0.016 0.183,-0.013L0.177,-0.013C0.175,-0.013 0.173,-0.011 0.17,-0.008C0.171,-0.007 0.171,-0.006 0.171,-0.005C0.166,0 0.16,0.004 0.155,0.007C0.149,0.011 0.143,0.015 0.138,0.019C0.138,0.02 0.139,0.021 0.14,0.024C0.137,0.025 0.134,0.026 0.133,0.029C0.131,0.032 0.128,0.034 0.125,0.035C0.122,0.036 0.12,0.038 0.118,0.039C0.116,0.041 0.113,0.043 0.11,0.044C0.111,0.046 0.112,0.047 0.114,0.048C0.111,0.049 0.109,0.05 0.108,0.049C0.107,0.049 0.105,0.048 0.103,0.047C0.1,0.048 0.098,0.048 0.095,0.048C0.092,0.048 0.09,0.046 0.088,0.043C0.087,0.044 0.085,0.046 0.084,0.047C0.083,0.048 0.081,0.05 0.078,0.052L0.071,0.052C0.069,0.053 0.065,0.054 0.062,0.056C0.063,0.055 0.064,0.054 0.064,0.053L0.065,0.052C0.068,0.051 0.072,0.049 0.076,0.048C0.072,0.046 0.065,0.048 0.054,0.053C0.054,0.053 0.053,0.052 0.051,0.05L0.057,0.044C0.057,0.043 0.056,0.042 0.054,0.042C0.053,0.043 0.051,0.044 0.051,0.045C0.05,0.046 0.048,0.047 0.047,0.048L0.041,0.036C0.042,0.034 0.044,0.032 0.046,0.031C0.045,0.03 0.043,0.03 0.042,0.029C0.041,0.029 0.039,0.029 0.038,0.028L0.026,0.014C0.025,0.012 0.024,0.01 0.023,0.007C0.022,0.004 0.023,0.001 0.026,-0.002C0.025,-0.005 0.025,-0.008 0.024,-0.011C0.023,-0.013 0.023,-0.015 0.022,-0.018C0.024,-0.021 0.025,-0.024 0.025,-0.027C0.024,-0.03 0.024,-0.032 0.024,-0.035L0.024,-0.041C0.026,-0.044 0.027,-0.047 0.027,-0.05C0.026,-0.053 0.026,-0.056 0.026,-0.059C0.027,-0.06 0.027,-0.062 0.027,-0.065C0.028,-0.068 0.029,-0.07 0.029,-0.072C0.028,-0.074 0.028,-0.076 0.029,-0.079L0.031,-0.08C0.032,-0.079 0.033,-0.077 0.034,-0.076C0.037,-0.079 0.038,-0.081 0.039,-0.082C0.04,-0.085 0.042,-0.089 0.043,-0.092C0.044,-0.095 0.045,-0.099 0.044,-0.102C0.044,-0.104 0.044,-0.106 0.045,-0.108C0.046,-0.11 0.046,-0.112 0.047,-0.115C0.049,-0.117 0.05,-0.119 0.05,-0.12L0.05,-0.124L0.054,-0.128C0.055,-0.131 0.056,-0.135 0.057,-0.139C0.058,-0.142 0.059,-0.146 0.06,-0.149L0.072,-0.16C0.073,-0.159 0.075,-0.158 0.076,-0.158C0.078,-0.159 0.079,-0.161 0.08,-0.164C0.081,-0.166 0.083,-0.168 0.087,-0.169C0.086,-0.168 0.085,-0.167 0.084,-0.166C0.083,-0.165 0.083,-0.164 0.082,-0.163C0.082,-0.162 0.082,-0.162 0.083,-0.161C0.084,-0.162 0.085,-0.162 0.086,-0.163C0.086,-0.164 0.088,-0.165 0.089,-0.166C0.089,-0.167 0.089,-0.168 0.088,-0.169C0.087,-0.17 0.087,-0.171 0.087,-0.172C0.088,-0.173 0.09,-0.175 0.091,-0.177C0.092,-0.179 0.094,-0.181 0.095,-0.184C0.096,-0.185 0.095,-0.186 0.094,-0.187L0.109,-0.197L0.109,-0.199C0.108,-0.2 0.108,-0.201 0.108,-0.202C0.109,-0.203 0.11,-0.204 0.11,-0.205C0.11,-0.206 0.111,-0.207 0.112,-0.208C0.116,-0.21 0.119,-0.213 0.122,-0.216C0.124,-0.219 0.126,-0.223 0.129,-0.226C0.131,-0.229 0.134,-0.233 0.137,-0.236L0.156,-0.255C0.159,-0.258 0.161,-0.261 0.163,-0.265C0.168,-0.268 0.173,-0.273 0.178,-0.279C0.183,-0.284 0.188,-0.289 0.195,-0.292C0.196,-0.293 0.196,-0.295 0.196,-0.298C0.201,-0.3 0.206,-0.303 0.212,-0.306C0.213,-0.307 0.214,-0.31 0.215,-0.314L0.219,-0.318C0.222,-0.32 0.223,-0.322 0.223,-0.324C0.228,-0.328 0.233,-0.332 0.238,-0.336C0.243,-0.34 0.247,-0.344 0.252,-0.347C0.253,-0.348 0.253,-0.348 0.254,-0.349C0.254,-0.35 0.255,-0.351 0.256,-0.352C0.257,-0.353 0.259,-0.355 0.26,-0.357C0.261,-0.358 0.264,-0.359 0.267,-0.36C0.268,-0.361 0.268,-0.361 0.269,-0.362C0.27,-0.362 0.27,-0.363 0.271,-0.364C0.274,-0.367 0.278,-0.37 0.281,-0.373C0.284,-0.375 0.287,-0.378 0.288,-0.383C0.292,-0.384 0.296,-0.386 0.3,-0.39C0.304,-0.394 0.308,-0.396 0.311,-0.395C0.314,-0.399 0.315,-0.401 0.316,-0.402L0.352,-0.421L0.359,-0.421L0.365,-0.427C0.368,-0.425 0.373,-0.425 0.378,-0.427C0.381,-0.428 0.383,-0.429 0.386,-0.429C0.388,-0.428 0.39,-0.427 0.391,-0.426C0.393,-0.423 0.395,-0.422 0.398,-0.421C0.401,-0.42 0.404,-0.42 0.408,-0.419C0.407,-0.417 0.407,-0.415 0.407,-0.414C0.407,-0.412 0.408,-0.41 0.411,-0.409C0.412,-0.408 0.412,-0.408 0.412,-0.407C0.413,-0.406 0.414,-0.405 0.415,-0.404L0.414,-0.403C0.414,-0.402 0.414,-0.402 0.413,-0.401L0.417,-0.401C0.418,-0.4 0.419,-0.4 0.421,-0.4C0.42,-0.398 0.42,-0.396 0.419,-0.395C0.418,-0.394 0.418,-0.392 0.417,-0.391L0.421,-0.382C0.424,-0.383 0.427,-0.384 0.43,-0.384C0.433,-0.384 0.435,-0.386 0.437,-0.39C0.437,-0.393 0.436,-0.394 0.433,-0.395L0.435,-0.395C0.436,-0.395 0.436,-0.395 0.436,-0.396L0.436,-0.397C0.438,-0.396 0.44,-0.395 0.443,-0.392C0.442,-0.391 0.443,-0.389 0.446,-0.388C0.446,-0.389 0.446,-0.389 0.447,-0.389L0.447,-0.392L0.443,-0.392C0.444,-0.394 0.446,-0.396 0.448,-0.397C0.449,-0.398 0.451,-0.399 0.452,-0.402C0.452,-0.402 0.454,-0.403 0.458,-0.406C0.457,-0.406 0.457,-0.406 0.458,-0.407C0.457,-0.407 0.456,-0.407 0.455,-0.406L0.453,-0.406C0.453,-0.407 0.452,-0.409 0.451,-0.41C0.452,-0.411 0.453,-0.412 0.454,-0.412C0.455,-0.413 0.455,-0.413 0.456,-0.414C0.457,-0.413 0.457,-0.413 0.457,-0.412C0.457,-0.412 0.458,-0.411 0.459,-0.41L0.466,-0.422C0.465,-0.422 0.465,-0.422 0.465,-0.423L0.465,-0.424C0.466,-0.425 0.466,-0.426 0.466,-0.427C0.465,-0.427 0.465,-0.427 0.465,-0.428C0.468,-0.43 0.47,-0.432 0.472,-0.434C0.474,-0.436 0.476,-0.438 0.478,-0.439C0.475,-0.439 0.473,-0.439 0.472,-0.44C0.473,-0.441 0.474,-0.442 0.475,-0.443C0.476,-0.443 0.478,-0.443 0.479,-0.444C0.476,-0.445 0.475,-0.446 0.475,-0.446C0.476,-0.449 0.477,-0.451 0.478,-0.452C0.479,-0.453 0.48,-0.454 0.481,-0.455C0.482,-0.455 0.482,-0.455 0.483,-0.456C0.486,-0.463 0.489,-0.47 0.492,-0.477C0.495,-0.484 0.499,-0.49 0.504,-0.496C0.505,-0.497 0.505,-0.499 0.506,-0.5C0.507,-0.502 0.507,-0.504 0.507,-0.505L0.502,-0.505C0.504,-0.506 0.505,-0.507 0.506,-0.507L0.51,-0.511C0.51,-0.511 0.511,-0.512 0.512,-0.515C0.513,-0.516 0.515,-0.516 0.516,-0.516C0.517,-0.516 0.519,-0.516 0.52,-0.517C0.519,-0.518 0.518,-0.519 0.518,-0.52C0.518,-0.523 0.518,-0.525 0.519,-0.527C0.518,-0.527 0.517,-0.527 0.516,-0.528L0.512,-0.528C0.515,-0.531 0.517,-0.533 0.519,-0.534C0.52,-0.535 0.522,-0.537 0.525,-0.539C0.526,-0.542 0.527,-0.545 0.527,-0.548C0.527,-0.55 0.528,-0.553 0.53,-0.556C0.533,-0.561 0.535,-0.565 0.537,-0.568C0.538,-0.569 0.539,-0.57 0.539,-0.571C0.54,-0.574 0.541,-0.577 0.543,-0.58C0.545,-0.583 0.547,-0.586 0.548,-0.589C0.549,-0.591 0.55,-0.593 0.551,-0.594C0.552,-0.595 0.553,-0.597 0.554,-0.599C0.555,-0.6 0.557,-0.602 0.558,-0.604C0.559,-0.606 0.56,-0.608 0.559,-0.611C0.558,-0.612 0.558,-0.612 0.559,-0.613C0.56,-0.613 0.56,-0.613 0.56,-0.614C0.561,-0.617 0.563,-0.621 0.565,-0.624C0.567,-0.626 0.569,-0.63 0.57,-0.634C0.571,-0.637 0.573,-0.64 0.576,-0.642C0.576,-0.645 0.576,-0.646 0.575,-0.647C0.578,-0.651 0.58,-0.655 0.582,-0.66C0.584,-0.664 0.585,-0.668 0.584,-0.672C0.587,-0.676 0.589,-0.68 0.591,-0.683C0.59,-0.69 0.59,-0.697 0.593,-0.705C0.596,-0.712 0.598,-0.72 0.6,-0.727C0.601,-0.728 0.603,-0.73 0.605,-0.731C0.607,-0.732 0.609,-0.734 0.611,-0.736C0.616,-0.739 0.616,-0.742 0.613,-0.745C0.614,-0.746 0.615,-0.748 0.616,-0.749C0.617,-0.75 0.618,-0.752 0.62,-0.754L0.627,-0.754C0.626,-0.752 0.626,-0.75 0.627,-0.749C0.628,-0.748 0.628,-0.746 0.629,-0.744C0.633,-0.747 0.637,-0.749 0.641,-0.751C0.643,-0.75 0.645,-0.75 0.648,-0.749C0.65,-0.748 0.651,-0.746 0.652,-0.743C0.653,-0.738 0.656,-0.736 0.661,-0.736L0.661,-0.731C0.66,-0.73 0.66,-0.728 0.66,-0.726L0.663,-0.726C0.664,-0.725 0.665,-0.725 0.666,-0.725C0.667,-0.72 0.667,-0.716 0.668,-0.713C0.668,-0.71 0.668,-0.706 0.669,-0.703C0.67,-0.702 0.671,-0.702 0.672,-0.702C0.673,-0.702 0.673,-0.702 0.674,-0.701C0.673,-0.696 0.673,-0.692 0.674,-0.688C0.675,-0.688 0.676,-0.688 0.677,-0.687C0.678,-0.686 0.679,-0.686 0.68,-0.686C0.68,-0.685 0.68,-0.684 0.681,-0.683L0.681,-0.68C0.679,-0.677 0.675,-0.673 0.669,-0.667C0.67,-0.666 0.671,-0.664 0.671,-0.661C0.669,-0.66 0.667,-0.658 0.666,-0.657C0.665,-0.655 0.663,-0.653 0.662,-0.65C0.661,-0.648 0.659,-0.644 0.654,-0.638C0.653,-0.637 0.653,-0.637 0.652,-0.636C0.651,-0.636 0.651,-0.636 0.65,-0.635L0.65,-0.631C0.649,-0.631 0.649,-0.631 0.649,-0.63C0.648,-0.629 0.647,-0.627 0.646,-0.626C0.645,-0.625 0.643,-0.623 0.641,-0.622C0.642,-0.617 0.639,-0.612 0.632,-0.607L0.634,-0.605L0.635,-0.605C0.633,-0.602 0.63,-0.599 0.627,-0.596C0.625,-0.593 0.622,-0.591 0.621,-0.588C0.621,-0.587 0.621,-0.586 0.622,-0.586C0.622,-0.586 0.622,-0.585 0.621,-0.584C0.62,-0.583 0.619,-0.581 0.618,-0.579C0.617,-0.577 0.616,-0.575 0.615,-0.574C0.616,-0.574 0.617,-0.573 0.617,-0.571C0.616,-0.57 0.615,-0.57 0.614,-0.57L0.609,-0.57L0.599,-0.558C0.598,-0.557 0.597,-0.557 0.597,-0.557C0.596,-0.557 0.595,-0.557 0.594,-0.556L0.595,-0.556L0.595,-0.554C0.596,-0.555 0.597,-0.556 0.597,-0.557C0.597,-0.557 0.598,-0.557 0.599,-0.558C0.599,-0.557 0.6,-0.557 0.602,-0.557L0.596,-0.551L0.598,-0.551C0.6,-0.552 0.602,-0.554 0.603,-0.555C0.604,-0.556 0.606,-0.556 0.608,-0.557C0.605,-0.554 0.602,-0.55 0.6,-0.546C0.597,-0.542 0.594,-0.538 0.591,-0.535C0.59,-0.534 0.589,-0.533 0.588,-0.532C0.587,-0.531 0.585,-0.53 0.583,-0.529C0.585,-0.529 0.587,-0.528 0.588,-0.526L0.583,-0.526C0.58,-0.521 0.577,-0.517 0.574,-0.512C0.571,-0.511 0.57,-0.51 0.57,-0.509L0.571,-0.509C0.571,-0.51 0.572,-0.511 0.574,-0.512L0.578,-0.512C0.576,-0.509 0.575,-0.505 0.574,-0.502C0.573,-0.499 0.571,-0.495 0.568,-0.492C0.567,-0.493 0.565,-0.494 0.562,-0.494C0.562,-0.492 0.56,-0.489 0.556,-0.485L0.564,-0.485C0.563,-0.482 0.562,-0.48 0.561,-0.478C0.56,-0.476 0.559,-0.473 0.557,-0.47L0.557,-0.474C0.556,-0.475 0.556,-0.477 0.556,-0.478L0.545,-0.47C0.548,-0.471 0.55,-0.472 0.551,-0.472C0.552,-0.471 0.553,-0.47 0.554,-0.469C0.554,-0.469 0.555,-0.469 0.556,-0.468C0.552,-0.465 0.549,-0.464 0.546,-0.463C0.547,-0.462 0.547,-0.461 0.547,-0.46C0.546,-0.459 0.546,-0.457 0.545,-0.456C0.544,-0.454 0.543,-0.452 0.542,-0.45L0.541,-0.45C0.541,-0.451 0.541,-0.452 0.542,-0.453L0.542,-0.455L0.541,-0.455C0.54,-0.454 0.54,-0.452 0.539,-0.451C0.538,-0.45 0.536,-0.448 0.535,-0.445C0.536,-0.449 0.536,-0.451 0.537,-0.452C0.535,-0.45 0.534,-0.449 0.534,-0.449C0.533,-0.448 0.531,-0.446 0.528,-0.445C0.529,-0.444 0.531,-0.441 0.533,-0.438C0.531,-0.439 0.529,-0.439 0.526,-0.439C0.525,-0.438 0.525,-0.436 0.524,-0.435C0.523,-0.434 0.521,-0.432 0.52,-0.431L0.517,-0.431L0.517,-0.434L0.516,-0.433C0.516,-0.432 0.515,-0.432 0.514,-0.431L0.517,-0.431C0.518,-0.43 0.52,-0.43 0.521,-0.429C0.522,-0.428 0.523,-0.428 0.525,-0.427C0.526,-0.429 0.528,-0.431 0.531,-0.434C0.532,-0.432 0.532,-0.43 0.531,-0.429C0.529,-0.427 0.527,-0.425 0.526,-0.424C0.523,-0.425 0.52,-0.424 0.517,-0.422C0.518,-0.421 0.519,-0.42 0.519,-0.42C0.519,-0.419 0.519,-0.419 0.518,-0.418C0.517,-0.418 0.517,-0.418 0.516,-0.419C0.515,-0.418 0.515,-0.417 0.515,-0.416C0.515,-0.415 0.515,-0.414 0.514,-0.413C0.516,-0.415 0.517,-0.417 0.518,-0.418C0.521,-0.418 0.522,-0.417 0.522,-0.416C0.521,-0.413 0.519,-0.41 0.517,-0.407C0.515,-0.404 0.513,-0.401 0.511,-0.398C0.509,-0.399 0.509,-0.401 0.51,-0.404C0.512,-0.406 0.512,-0.407 0.509,-0.407C0.508,-0.406 0.508,-0.406 0.507,-0.405C0.507,-0.404 0.507,-0.402 0.506,-0.401L0.504,-0.401C0.504,-0.4 0.504,-0.4 0.503,-0.4C0.503,-0.399 0.503,-0.397 0.502,-0.396L0.502,-0.39C0.501,-0.391 0.5,-0.392 0.499,-0.392C0.498,-0.392 0.497,-0.393 0.496,-0.394C0.491,-0.391 0.489,-0.387 0.488,-0.384C0.487,-0.38 0.485,-0.376 0.483,-0.371C0.484,-0.372 0.485,-0.372 0.485,-0.373L0.487,-0.373L0.487,-0.377L0.496,-0.39C0.498,-0.388 0.498,-0.386 0.497,-0.383C0.495,-0.38 0.495,-0.378 0.497,-0.377L0.487,-0.368C0.484,-0.367 0.482,-0.366 0.481,-0.366C0.48,-0.365 0.478,-0.363 0.477,-0.36C0.481,-0.361 0.485,-0.363 0.489,-0.366C0.492,-0.368 0.496,-0.371 0.501,-0.374C0.5,-0.371 0.498,-0.368 0.497,-0.365C0.495,-0.362 0.493,-0.36 0.492,-0.358C0.491,-0.358 0.49,-0.357 0.488,-0.355C0.488,-0.357 0.487,-0.358 0.486,-0.359L0.485,-0.358C0.484,-0.358 0.484,-0.357 0.483,-0.356L0.483,-0.355C0.484,-0.354 0.484,-0.354 0.485,-0.354C0.486,-0.354 0.487,-0.354 0.488,-0.353C0.489,-0.352 0.49,-0.352 0.491,-0.351C0.491,-0.35 0.492,-0.349 0.493,-0.348C0.488,-0.347 0.483,-0.345 0.48,-0.344C0.479,-0.343 0.477,-0.341 0.476,-0.34C0.475,-0.338 0.475,-0.336 0.476,-0.334C0.477,-0.334 0.478,-0.334 0.479,-0.335L0.482,-0.335C0.481,-0.332 0.479,-0.33 0.477,-0.33C0.476,-0.33 0.474,-0.329 0.473,-0.328L0.467,-0.316C0.462,-0.313 0.459,-0.309 0.459,-0.304L0.459,-0.301C0.457,-0.296 0.455,-0.292 0.453,-0.286C0.45,-0.281 0.448,-0.276 0.445,-0.271L0.446,-0.27C0.445,-0.269 0.445,-0.269 0.446,-0.268C0.449,-0.269 0.451,-0.27 0.452,-0.271C0.452,-0.267 0.452,-0.264 0.451,-0.263C0.454,-0.264 0.455,-0.264 0.456,-0.265C0.455,-0.262 0.453,-0.26 0.452,-0.258C0.451,-0.256 0.449,-0.254 0.447,-0.252C0.447,-0.253 0.447,-0.254 0.448,-0.255L0.448,-0.258L0.441,-0.254C0.444,-0.254 0.446,-0.253 0.447,-0.252C0.446,-0.249 0.445,-0.247 0.445,-0.246C0.446,-0.243 0.445,-0.239 0.442,-0.232C0.441,-0.233 0.439,-0.233 0.438,-0.233C0.439,-0.234 0.44,-0.235 0.441,-0.236C0.441,-0.237 0.442,-0.239 0.443,-0.24L0.433,-0.24C0.431,-0.239 0.429,-0.238 0.427,-0.235L0.428,-0.234C0.428,-0.233 0.429,-0.233 0.43,-0.232C0.428,-0.23 0.427,-0.228 0.427,-0.227C0.426,-0.226 0.425,-0.224 0.424,-0.222C0.424,-0.221 0.424,-0.219 0.423,-0.218C0.422,-0.217 0.422,-0.215 0.423,-0.214L0.418,-0.209C0.417,-0.205 0.417,-0.201 0.418,-0.198C0.417,-0.198 0.415,-0.197 0.412,-0.196C0.414,-0.196 0.416,-0.195 0.417,-0.194C0.417,-0.192 0.417,-0.19 0.418,-0.187C0.419,-0.184 0.417,-0.181 0.413,-0.178C0.412,-0.177 0.41,-0.176 0.408,-0.175C0.406,-0.175 0.404,-0.174 0.403,-0.173C0.403,-0.167 0.403,-0.163 0.404,-0.161C0.405,-0.16 0.406,-0.16 0.406,-0.159C0.407,-0.158 0.408,-0.156 0.409,-0.155C0.408,-0.152 0.406,-0.149 0.404,-0.146C0.402,-0.142 0.402,-0.139 0.403,-0.136L0.402,-0.136L0.4,-0.134C0.401,-0.133 0.402,-0.133 0.403,-0.132C0.403,-0.131 0.404,-0.131 0.405,-0.13L0.395,-0.12C0.39,-0.107 0.389,-0.097 0.392,-0.092L0.386,-0.086C0.386,-0.084 0.387,-0.081 0.388,-0.077C0.387,-0.076 0.385,-0.076 0.384,-0.076C0.383,-0.076 0.381,-0.075 0.38,-0.074C0.381,-0.067 0.383,-0.059 0.384,-0.05C0.381,-0.05 0.379,-0.05 0.378,-0.049C0.377,-0.049 0.375,-0.048 0.371,-0.046L0.38,-0.046C0.381,-0.045 0.381,-0.043 0.381,-0.042L0.375,-0.032L0.371,-0.036C0.372,-0.037 0.372,-0.038 0.373,-0.039C0.374,-0.04 0.374,-0.04 0.375,-0.041C0.374,-0.042 0.372,-0.042 0.37,-0.042C0.368,-0.042 0.366,-0.041 0.363,-0.04C0.362,-0.04 0.361,-0.04 0.36,-0.039C0.359,-0.038 0.357,-0.038 0.356,-0.037C0.358,-0.036 0.36,-0.036 0.361,-0.036L0.36,-0.036ZM0.437,-0.376C0.436,-0.376 0.436,-0.376 0.436,-0.377L0.433,-0.377L0.432,-0.376L0.437,-0.376L0.437,-0.372L0.439,-0.373C0.438,-0.374 0.437,-0.375 0.437,-0.376ZM0.397,-0.252C0.394,-0.25 0.393,-0.247 0.393,-0.244C0.395,-0.245 0.396,-0.247 0.396,-0.248C0.396,-0.249 0.396,-0.251 0.397,-0.252C0.4,-0.253 0.401,-0.254 0.4,-0.254L0.4,-0.256C0.399,-0.255 0.398,-0.253 0.397,-0.252ZM0.325,-0.337L0.322,-0.337C0.321,-0.336 0.32,-0.336 0.319,-0.336C0.315,-0.331 0.311,-0.327 0.307,-0.324C0.302,-0.321 0.298,-0.318 0.294,-0.314C0.293,-0.313 0.293,-0.312 0.293,-0.311C0.293,-0.31 0.293,-0.309 0.292,-0.308C0.291,-0.307 0.289,-0.306 0.288,-0.305C0.286,-0.304 0.285,-0.302 0.284,-0.301C0.284,-0.298 0.282,-0.296 0.278,-0.293C0.275,-0.29 0.273,-0.288 0.272,-0.285C0.27,-0.283 0.268,-0.281 0.265,-0.28C0.264,-0.278 0.263,-0.276 0.263,-0.275L0.262,-0.276C0.263,-0.277 0.263,-0.279 0.264,-0.281C0.264,-0.282 0.265,-0.284 0.266,-0.286C0.265,-0.285 0.263,-0.284 0.261,-0.283C0.258,-0.282 0.256,-0.281 0.255,-0.28C0.256,-0.279 0.257,-0.277 0.257,-0.276C0.256,-0.275 0.256,-0.274 0.255,-0.273C0.254,-0.272 0.254,-0.271 0.254,-0.27C0.252,-0.269 0.251,-0.267 0.251,-0.264C0.248,-0.263 0.245,-0.263 0.243,-0.263C0.241,-0.263 0.238,-0.261 0.235,-0.258C0.236,-0.257 0.236,-0.255 0.235,-0.254C0.234,-0.252 0.234,-0.25 0.233,-0.247C0.232,-0.246 0.231,-0.244 0.229,-0.243C0.227,-0.241 0.225,-0.239 0.223,-0.238C0.222,-0.236 0.222,-0.234 0.221,-0.232C0.22,-0.229 0.22,-0.227 0.219,-0.226C0.218,-0.225 0.216,-0.224 0.215,-0.224C0.216,-0.229 0.217,-0.233 0.217,-0.235L0.216,-0.235C0.215,-0.232 0.213,-0.228 0.212,-0.225C0.21,-0.222 0.208,-0.217 0.205,-0.212C0.205,-0.214 0.205,-0.216 0.204,-0.217C0.204,-0.218 0.204,-0.219 0.205,-0.22C0.204,-0.217 0.202,-0.215 0.2,-0.214C0.198,-0.212 0.196,-0.21 0.195,-0.208C0.195,-0.207 0.196,-0.206 0.199,-0.205C0.194,-0.202 0.189,-0.199 0.184,-0.194C0.184,-0.191 0.184,-0.189 0.183,-0.187C0.183,-0.184 0.181,-0.182 0.178,-0.181C0.178,-0.182 0.177,-0.184 0.176,-0.188C0.175,-0.187 0.175,-0.185 0.174,-0.184C0.173,-0.182 0.173,-0.181 0.174,-0.18C0.173,-0.177 0.173,-0.175 0.174,-0.173C0.173,-0.172 0.17,-0.17 0.167,-0.167C0.165,-0.167 0.163,-0.166 0.162,-0.165C0.161,-0.164 0.159,-0.162 0.158,-0.161C0.157,-0.156 0.156,-0.151 0.153,-0.145C0.152,-0.144 0.152,-0.144 0.152,-0.143C0.151,-0.142 0.15,-0.141 0.147,-0.14C0.151,-0.139 0.153,-0.138 0.152,-0.138C0.15,-0.135 0.148,-0.133 0.146,-0.132C0.144,-0.13 0.142,-0.128 0.141,-0.126C0.139,-0.125 0.137,-0.125 0.136,-0.125C0.135,-0.124 0.133,-0.123 0.13,-0.122C0.129,-0.121 0.129,-0.119 0.129,-0.117C0.128,-0.116 0.129,-0.115 0.131,-0.115C0.134,-0.116 0.135,-0.117 0.136,-0.117C0.137,-0.117 0.138,-0.116 0.139,-0.115C0.138,-0.114 0.136,-0.113 0.134,-0.112C0.132,-0.111 0.13,-0.11 0.128,-0.109C0.127,-0.106 0.126,-0.102 0.125,-0.1C0.124,-0.097 0.122,-0.093 0.121,-0.089C0.12,-0.092 0.12,-0.095 0.12,-0.097C0.118,-0.096 0.116,-0.094 0.113,-0.091L0.115,-0.091C0.115,-0.09 0.115,-0.09 0.116,-0.09L0.106,-0.078C0.106,-0.075 0.106,-0.072 0.107,-0.071C0.106,-0.07 0.105,-0.07 0.105,-0.07C0.104,-0.07 0.103,-0.069 0.102,-0.068L0.102,-0.065C0.103,-0.064 0.102,-0.062 0.101,-0.061C0.1,-0.058 0.099,-0.055 0.098,-0.052C0.097,-0.049 0.097,-0.047 0.098,-0.044C0.097,-0.043 0.097,-0.042 0.096,-0.042C0.095,-0.041 0.094,-0.041 0.094,-0.04C0.096,-0.038 0.098,-0.036 0.1,-0.035C0.102,-0.034 0.104,-0.032 0.106,-0.031C0.108,-0.032 0.112,-0.033 0.119,-0.036C0.118,-0.035 0.118,-0.035 0.117,-0.034C0.117,-0.033 0.117,-0.031 0.116,-0.03C0.121,-0.031 0.126,-0.032 0.131,-0.034L0.135,-0.042C0.136,-0.042 0.137,-0.042 0.138,-0.043L0.14,-0.043L0.147,-0.053C0.148,-0.054 0.149,-0.056 0.149,-0.058C0.149,-0.06 0.15,-0.062 0.151,-0.065C0.156,-0.065 0.161,-0.065 0.164,-0.066C0.165,-0.068 0.166,-0.07 0.167,-0.072C0.168,-0.074 0.17,-0.076 0.171,-0.079L0.18,-0.084C0.18,-0.084 0.181,-0.083 0.184,-0.082C0.184,-0.086 0.184,-0.089 0.183,-0.09L0.181,-0.088C0.18,-0.089 0.178,-0.09 0.177,-0.09C0.178,-0.093 0.179,-0.096 0.18,-0.098C0.181,-0.1 0.183,-0.102 0.186,-0.103C0.187,-0.104 0.189,-0.104 0.19,-0.105C0.191,-0.106 0.193,-0.106 0.194,-0.106C0.195,-0.107 0.197,-0.11 0.198,-0.113C0.205,-0.116 0.21,-0.116 0.213,-0.113C0.214,-0.114 0.214,-0.115 0.215,-0.116C0.216,-0.116 0.216,-0.117 0.217,-0.118C0.216,-0.119 0.216,-0.121 0.216,-0.122C0.216,-0.123 0.216,-0.124 0.215,-0.125C0.218,-0.128 0.222,-0.13 0.225,-0.131C0.228,-0.132 0.23,-0.135 0.231,-0.138L0.234,-0.138C0.237,-0.141 0.239,-0.143 0.241,-0.145C0.243,-0.146 0.245,-0.148 0.246,-0.15C0.247,-0.152 0.249,-0.154 0.251,-0.155C0.252,-0.156 0.254,-0.158 0.256,-0.16C0.255,-0.161 0.255,-0.162 0.255,-0.163C0.258,-0.166 0.259,-0.168 0.26,-0.169L0.265,-0.169C0.267,-0.172 0.269,-0.174 0.272,-0.177C0.274,-0.179 0.276,-0.182 0.278,-0.185C0.279,-0.185 0.28,-0.186 0.283,-0.187C0.284,-0.188 0.285,-0.19 0.285,-0.191C0.285,-0.192 0.286,-0.193 0.287,-0.194C0.29,-0.197 0.292,-0.199 0.295,-0.202C0.297,-0.204 0.299,-0.207 0.302,-0.21C0.303,-0.213 0.305,-0.216 0.308,-0.219C0.311,-0.221 0.313,-0.224 0.314,-0.227C0.314,-0.226 0.315,-0.227 0.317,-0.229C0.318,-0.23 0.32,-0.231 0.321,-0.232C0.322,-0.233 0.322,-0.233 0.323,-0.234C0.324,-0.237 0.327,-0.24 0.33,-0.243C0.333,-0.246 0.335,-0.248 0.337,-0.251L0.337,-0.257C0.338,-0.258 0.34,-0.259 0.342,-0.259C0.343,-0.259 0.345,-0.26 0.346,-0.263C0.349,-0.264 0.352,-0.267 0.355,-0.271C0.358,-0.274 0.361,-0.277 0.364,-0.28C0.363,-0.281 0.361,-0.281 0.359,-0.279C0.356,-0.276 0.354,-0.276 0.352,-0.277C0.354,-0.28 0.356,-0.282 0.359,-0.283C0.361,-0.284 0.364,-0.286 0.367,-0.287C0.368,-0.288 0.368,-0.29 0.368,-0.292C0.368,-0.293 0.368,-0.295 0.369,-0.296C0.371,-0.295 0.373,-0.296 0.375,-0.297C0.377,-0.298 0.379,-0.299 0.38,-0.3C0.379,-0.301 0.378,-0.303 0.379,-0.304C0.379,-0.305 0.378,-0.307 0.377,-0.308C0.377,-0.309 0.377,-0.31 0.378,-0.311C0.379,-0.312 0.379,-0.313 0.38,-0.314C0.384,-0.316 0.387,-0.317 0.389,-0.318C0.388,-0.319 0.388,-0.322 0.388,-0.325C0.387,-0.325 0.387,-0.325 0.387,-0.326L0.384,-0.326C0.386,-0.343 0.384,-0.357 0.379,-0.368C0.378,-0.369 0.377,-0.37 0.376,-0.37C0.375,-0.37 0.374,-0.37 0.373,-0.371C0.368,-0.368 0.363,-0.365 0.359,-0.362C0.354,-0.359 0.35,-0.356 0.345,-0.353C0.344,-0.351 0.342,-0.349 0.34,-0.347C0.337,-0.346 0.335,-0.344 0.334,-0.342C0.331,-0.341 0.329,-0.341 0.326,-0.341L0.324,-0.337L0.325,-0.337ZM0.108,-0.179C0.107,-0.18 0.106,-0.182 0.105,-0.185C0.106,-0.186 0.108,-0.187 0.11,-0.19C0.107,-0.189 0.106,-0.188 0.105,-0.188C0.104,-0.188 0.103,-0.188 0.102,-0.187C0.1,-0.184 0.098,-0.182 0.096,-0.18C0.094,-0.178 0.092,-0.176 0.091,-0.173C0.093,-0.174 0.095,-0.175 0.097,-0.175C0.099,-0.176 0.101,-0.177 0.102,-0.18C0.104,-0.179 0.106,-0.179 0.108,-0.179ZM0.377,-0.227C0.381,-0.23 0.383,-0.234 0.384,-0.236C0.384,-0.239 0.384,-0.243 0.385,-0.247C0.383,-0.244 0.381,-0.241 0.38,-0.239C0.378,-0.238 0.376,-0.236 0.375,-0.234C0.376,-0.233 0.376,-0.232 0.376,-0.231C0.376,-0.23 0.376,-0.228 0.377,-0.227ZM0.372,-0.166C0.373,-0.167 0.375,-0.169 0.376,-0.171C0.377,-0.172 0.376,-0.174 0.375,-0.175L0.365,-0.164C0.367,-0.163 0.37,-0.16 0.373,-0.157C0.374,-0.159 0.374,-0.161 0.374,-0.162C0.373,-0.163 0.373,-0.165 0.372,-0.166ZM0.427,-0.365C0.426,-0.362 0.425,-0.36 0.425,-0.359C0.425,-0.358 0.426,-0.356 0.427,-0.355L0.433,-0.365L0.427,-0.365ZM0.369,-0.284C0.372,-0.285 0.374,-0.287 0.375,-0.288C0.376,-0.289 0.377,-0.291 0.377,-0.293C0.374,-0.293 0.372,-0.292 0.369,-0.29C0.369,-0.289 0.369,-0.288 0.37,-0.287C0.37,-0.286 0.37,-0.285 0.369,-0.284ZM0.281,-0.17C0.282,-0.171 0.283,-0.173 0.284,-0.174C0.285,-0.175 0.286,-0.177 0.287,-0.179C0.286,-0.18 0.286,-0.18 0.285,-0.18L0.279,-0.174C0.279,-0.174 0.28,-0.173 0.281,-0.17ZM0.071,0.035C0.071,0.031 0.071,0.028 0.07,0.026C0.068,0.03 0.066,0.033 0.064,0.036C0.067,0.036 0.069,0.036 0.071,0.035ZM0.454,-0.305C0.451,-0.304 0.45,-0.303 0.45,-0.302C0.45,-0.301 0.45,-0.3 0.449,-0.299C0.45,-0.298 0.45,-0.297 0.45,-0.296C0.451,-0.298 0.452,-0.3 0.452,-0.301C0.452,-0.302 0.453,-0.303 0.454,-0.305ZM0.508,-0.413C0.509,-0.414 0.51,-0.416 0.51,-0.417C0.511,-0.418 0.512,-0.42 0.513,-0.421C0.512,-0.42 0.51,-0.419 0.509,-0.419C0.508,-0.419 0.507,-0.419 0.506,-0.418C0.506,-0.416 0.507,-0.414 0.508,-0.413ZM0.374,-0.085C0.375,-0.084 0.376,-0.083 0.376,-0.082C0.375,-0.081 0.375,-0.08 0.375,-0.079L0.381,-0.088C0.38,-0.087 0.379,-0.086 0.378,-0.086C0.377,-0.086 0.375,-0.086 0.374,-0.085ZM0.423,-0.37C0.424,-0.366 0.426,-0.366 0.429,-0.37L0.423,-0.37ZM0.044,-0.084L0.046,-0.084C0.046,-0.084 0.047,-0.085 0.048,-0.088C0.048,-0.089 0.048,-0.09 0.049,-0.091L0.047,-0.091L0.044,-0.084ZM0.115,-0.103L0.115,-0.101C0.114,-0.1 0.114,-0.099 0.114,-0.098C0.115,-0.099 0.117,-0.1 0.117,-0.1C0.118,-0.1 0.119,-0.1 0.12,-0.101C0.119,-0.102 0.117,-0.103 0.115,-0.103ZM0.436,-0.265C0.438,-0.268 0.439,-0.269 0.439,-0.27L0.435,-0.27C0.435,-0.269 0.435,-0.269 0.436,-0.268C0.437,-0.267 0.437,-0.266 0.436,-0.265ZM0.384,-0.215L0.384,-0.209C0.387,-0.21 0.388,-0.211 0.388,-0.211C0.388,-0.212 0.388,-0.212 0.387,-0.213C0.386,-0.214 0.385,-0.214 0.384,-0.215ZM0.144,-0.146L0.143,-0.146L0.143,-0.143L0.144,-0.143L0.144,-0.146ZM0.468,-0.335L0.467,-0.335C0.467,-0.333 0.466,-0.332 0.464,-0.331C0.465,-0.33 0.466,-0.33 0.467,-0.33C0.467,-0.331 0.467,-0.332 0.468,-0.333L0.468,-0.335ZM0.412,-0.28C0.411,-0.277 0.41,-0.276 0.41,-0.277L0.41,-0.274C0.411,-0.275 0.412,-0.275 0.412,-0.275C0.412,-0.276 0.412,-0.276 0.411,-0.277C0.411,-0.278 0.411,-0.279 0.412,-0.28ZM0.417,-0.366C0.418,-0.367 0.419,-0.367 0.42,-0.367C0.419,-0.368 0.419,-0.368 0.42,-0.369C0.42,-0.37 0.42,-0.37 0.419,-0.371L0.418,-0.371L0.418,-0.369C0.417,-0.368 0.417,-0.367 0.417,-0.366ZM0.382,-0.194C0.381,-0.193 0.381,-0.192 0.381,-0.192L0.381,-0.191C0.381,-0.19 0.381,-0.19 0.382,-0.19C0.382,-0.19 0.382,-0.189 0.381,-0.188L0.383,-0.19L0.383,-0.192C0.382,-0.192 0.382,-0.193 0.382,-0.194ZM0.12,-0.116L0.12,-0.118L0.115,-0.118L0.115,-0.116L0.12,-0.116ZM0.172,-0.18C0.172,-0.181 0.172,-0.181 0.171,-0.181L0.169,-0.18C0.169,-0.179 0.169,-0.179 0.168,-0.178C0.17,-0.179 0.171,-0.179 0.172,-0.18ZM0.275,-0.174L0.273,-0.173L0.274,-0.172C0.273,-0.171 0.274,-0.171 0.275,-0.171C0.276,-0.171 0.276,-0.171 0.276,-0.172C0.274,-0.172 0.274,-0.173 0.275,-0.174ZM0.294,-0.182L0.292,-0.184C0.292,-0.183 0.291,-0.182 0.289,-0.181C0.29,-0.181 0.291,-0.181 0.291,-0.18C0.292,-0.181 0.293,-0.182 0.294,-0.182ZM0.464,-0.326C0.464,-0.325 0.463,-0.325 0.462,-0.325L0.464,-0.323L0.464,-0.326ZM0.418,-0.34L0.42,-0.342L0.418,-0.342L0.418,-0.34ZM0.352,-0.094L0.353,-0.094C0.353,-0.095 0.353,-0.096 0.354,-0.097L0.353,-0.097C0.352,-0.096 0.352,-0.095 0.352,-0.094ZM0.476,-0.356C0.477,-0.357 0.477,-0.358 0.476,-0.358L0.473,-0.355L0.475,-0.355L0.476,-0.356ZM0.422,-0.358L0.42,-0.358C0.419,-0.355 0.418,-0.354 0.418,-0.354L0.42,-0.354C0.42,-0.354 0.421,-0.355 0.422,-0.358ZM0.442,-0.277C0.443,-0.278 0.444,-0.278 0.444,-0.278L0.443,-0.28C0.442,-0.28 0.442,-0.279 0.442,-0.278L0.442,-0.277ZM0.447,-0.284L0.448,-0.286L0.446,-0.286L0.446,-0.285C0.446,-0.284 0.446,-0.284 0.447,-0.284ZM0.15,-0.151L0.15,-0.15C0.15,-0.15 0.151,-0.151 0.152,-0.152L0.153,-0.154L0.15,-0.151ZM0.438,-0.233L0.438,-0.232L0.434,-0.228C0.435,-0.227 0.435,-0.226 0.435,-0.226C0.436,-0.226 0.437,-0.226 0.438,-0.227C0.437,-0.224 0.435,-0.221 0.434,-0.218C0.432,-0.215 0.43,-0.211 0.428,-0.208L0.428,-0.205L0.42,-0.205C0.423,-0.208 0.425,-0.212 0.427,-0.215C0.428,-0.218 0.43,-0.221 0.431,-0.224L0.431,-0.229C0.434,-0.234 0.436,-0.235 0.438,-0.233ZM0.467,-0.311C0.468,-0.312 0.469,-0.313 0.472,-0.314C0.473,-0.315 0.473,-0.316 0.472,-0.317C0.471,-0.318 0.471,-0.319 0.472,-0.32C0.473,-0.319 0.474,-0.319 0.474,-0.319C0.474,-0.318 0.474,-0.318 0.475,-0.318C0.474,-0.315 0.474,-0.313 0.473,-0.312C0.472,-0.311 0.47,-0.311 0.467,-0.311ZM0.457,-0.419C0.456,-0.418 0.456,-0.418 0.456,-0.417C0.455,-0.416 0.454,-0.416 0.453,-0.415L0.449,-0.415L0.449,-0.418C0.448,-0.419 0.448,-0.42 0.448,-0.421C0.449,-0.42 0.451,-0.42 0.452,-0.42C0.453,-0.42 0.455,-0.42 0.457,-0.419ZM0.464,-0.298C0.466,-0.295 0.466,-0.292 0.464,-0.289C0.463,-0.29 0.461,-0.291 0.46,-0.294L0.464,-0.298ZM0.404,-0.161C0.405,-0.165 0.406,-0.168 0.405,-0.17C0.408,-0.169 0.409,-0.168 0.408,-0.167C0.408,-0.166 0.408,-0.164 0.407,-0.162C0.406,-0.162 0.405,-0.162 0.404,-0.161ZM0.386,-0.067C0.387,-0.066 0.388,-0.066 0.388,-0.066C0.388,-0.065 0.388,-0.065 0.389,-0.064C0.386,-0.064 0.385,-0.065 0.386,-0.067ZM0.503,-0.378L0.498,-0.378C0.498,-0.379 0.498,-0.379 0.499,-0.38L0.504,-0.38C0.503,-0.379 0.503,-0.379 0.503,-0.378ZM0.396,-0.11C0.397,-0.112 0.397,-0.114 0.398,-0.115C0.398,-0.116 0.398,-0.118 0.399,-0.119C0.4,-0.116 0.399,-0.113 0.396,-0.11ZM0.464,-0.298C0.461,-0.298 0.46,-0.299 0.462,-0.302C0.465,-0.302 0.465,-0.301 0.464,-0.298ZM0.512,-0.392L0.509,-0.392C0.509,-0.391 0.509,-0.391 0.508,-0.391C0.507,-0.392 0.507,-0.393 0.508,-0.394C0.509,-0.394 0.51,-0.394 0.511,-0.395C0.511,-0.394 0.511,-0.393 0.512,-0.392ZM0.381,-0.042C0.382,-0.043 0.383,-0.044 0.383,-0.045C0.383,-0.046 0.383,-0.047 0.384,-0.048C0.385,-0.047 0.386,-0.046 0.385,-0.045C0.384,-0.043 0.382,-0.043 0.381,-0.042ZM0.426,-0.2L0.424,-0.2C0.423,-0.199 0.422,-0.199 0.421,-0.199L0.421,-0.2C0.422,-0.2 0.423,-0.2 0.424,-0.201C0.425,-0.202 0.426,-0.202 0.427,-0.202L0.426,-0.2ZM0.442,-0.409L0.443,-0.408C0.442,-0.408 0.442,-0.408 0.442,-0.407L0.441,-0.407L0.441,-0.408L0.442,-0.409ZM0.029,-0.079C0.03,-0.081 0.03,-0.083 0.03,-0.085L0.032,-0.086C0.031,-0.083 0.03,-0.081 0.031,-0.08L0.029,-0.079ZM0.363,-0.04L0.366,-0.04C0.365,-0.037 0.363,-0.036 0.36,-0.036L0.361,-0.036C0.361,-0.036 0.362,-0.037 0.363,-0.04ZM0.473,-0.328L0.478,-0.328C0.475,-0.325 0.473,-0.325 0.473,-0.328ZM0.457,-0.419C0.457,-0.42 0.457,-0.42 0.458,-0.421C0.459,-0.421 0.459,-0.421 0.459,-0.422L0.46,-0.421C0.458,-0.42 0.457,-0.419 0.457,-0.419ZM0.46,-0.431L0.461,-0.431L0.462,-0.43C0.461,-0.43 0.46,-0.429 0.459,-0.428C0.46,-0.429 0.46,-0.43 0.46,-0.431ZM0.545,-0.449C0.545,-0.448 0.544,-0.446 0.543,-0.445L0.541,-0.445C0.542,-0.446 0.543,-0.448 0.543,-0.449L0.545,-0.449ZM0.496,-0.497C0.497,-0.496 0.497,-0.495 0.497,-0.494L0.496,-0.493C0.495,-0.494 0.495,-0.495 0.494,-0.496L0.495,-0.496C0.496,-0.496 0.496,-0.496 0.496,-0.497ZM0.416,-0.166C0.415,-0.167 0.415,-0.167 0.416,-0.168L0.417,-0.169C0.417,-0.168 0.417,-0.168 0.418,-0.168L0.418,-0.166L0.416,-0.166ZM0.12,-0.074C0.119,-0.073 0.117,-0.072 0.116,-0.071C0.115,-0.07 0.113,-0.069 0.112,-0.068C0.113,-0.07 0.114,-0.072 0.114,-0.073C0.114,-0.074 0.115,-0.076 0.116,-0.078C0.117,-0.077 0.118,-0.077 0.118,-0.077C0.118,-0.076 0.119,-0.075 0.12,-0.074ZM0.194,-0.193C0.191,-0.19 0.188,-0.186 0.185,-0.181C0.185,-0.182 0.184,-0.184 0.183,-0.185C0.186,-0.187 0.188,-0.19 0.191,-0.194C0.192,-0.193 0.193,-0.193 0.194,-0.193ZM0.167,-0.167L0.169,-0.167C0.168,-0.165 0.168,-0.163 0.169,-0.162C0.169,-0.16 0.168,-0.158 0.165,-0.155C0.166,-0.158 0.166,-0.16 0.167,-0.162L0.167,-0.167ZM0.129,-0.044L0.135,-0.05C0.136,-0.051 0.136,-0.052 0.137,-0.053L0.143,-0.053C0.141,-0.052 0.139,-0.05 0.138,-0.049C0.137,-0.048 0.135,-0.047 0.132,-0.047C0.132,-0.045 0.132,-0.044 0.133,-0.043L0.129,-0.041L0.129,-0.044ZM0.179,-0.17C0.18,-0.171 0.18,-0.173 0.181,-0.174C0.182,-0.176 0.182,-0.178 0.183,-0.18C0.184,-0.177 0.183,-0.174 0.179,-0.17ZM0.164,-0.109C0.166,-0.112 0.169,-0.114 0.172,-0.113C0.17,-0.112 0.169,-0.112 0.168,-0.111C0.167,-0.11 0.165,-0.11 0.164,-0.109ZM0.119,-0.036C0.119,-0.037 0.12,-0.039 0.121,-0.04C0.122,-0.04 0.122,-0.04 0.123,-0.039C0.123,-0.038 0.124,-0.038 0.125,-0.037C0.122,-0.036 0.12,-0.036 0.119,-0.036ZM0.179,-0.17C0.179,-0.17 0.178,-0.169 0.176,-0.167C0.176,-0.168 0.175,-0.168 0.174,-0.169C0.175,-0.169 0.176,-0.169 0.177,-0.17L0.179,-0.17ZM0.324,-0.337L0.325,-0.336C0.325,-0.335 0.325,-0.335 0.326,-0.334L0.324,-0.332C0.325,-0.334 0.325,-0.336 0.325,-0.337L0.324,-0.337ZM0.174,-0.085L0.172,-0.085L0.173,-0.086L0.175,-0.086L0.174,-0.085Z" style="fill:white;fill-rule:nonzero;"/>
                </g>
                <g transform="matrix(96.3598,166.9,-175.734,101.46,965.679,1519)">
                    <path d="M0.36,-0.036C0.36,-0.036 0.359,-0.035 0.358,-0.032C0.355,-0.031 0.354,-0.031 0.353,-0.034C0.352,-0.036 0.35,-0.035 0.347,-0.032L0.347,-0.036C0.347,-0.039 0.348,-0.041 0.349,-0.042C0.348,-0.044 0.346,-0.046 0.345,-0.047C0.344,-0.048 0.343,-0.05 0.342,-0.052C0.346,-0.061 0.347,-0.069 0.346,-0.078C0.345,-0.078 0.347,-0.079 0.351,-0.08C0.349,-0.082 0.348,-0.083 0.348,-0.083C0.347,-0.079 0.346,-0.077 0.346,-0.078C0.343,-0.079 0.341,-0.081 0.34,-0.084C0.341,-0.092 0.342,-0.1 0.345,-0.108C0.343,-0.109 0.342,-0.11 0.341,-0.112C0.342,-0.116 0.344,-0.119 0.345,-0.12C0.348,-0.124 0.35,-0.128 0.351,-0.131C0.352,-0.134 0.351,-0.138 0.35,-0.142C0.353,-0.144 0.356,-0.145 0.357,-0.146C0.356,-0.147 0.356,-0.149 0.356,-0.15C0.355,-0.151 0.355,-0.153 0.356,-0.155C0.357,-0.156 0.358,-0.158 0.359,-0.159C0.359,-0.16 0.359,-0.161 0.36,-0.162L0.36,-0.166C0.363,-0.167 0.364,-0.169 0.365,-0.172C0.365,-0.175 0.366,-0.177 0.367,-0.18C0.367,-0.181 0.366,-0.183 0.365,-0.186C0.367,-0.188 0.369,-0.19 0.37,-0.192C0.371,-0.193 0.371,-0.195 0.372,-0.196C0.373,-0.204 0.375,-0.21 0.376,-0.215C0.376,-0.22 0.466,-0.422 0.466,-0.422C0.465,-0.422 0.465,-0.422 0.465,-0.423L0.465,-0.424C0.466,-0.425 0.466,-0.426 0.466,-0.427C0.465,-0.427 0.465,-0.427 0.465,-0.428C0.468,-0.43 0.47,-0.432 0.472,-0.434C0.474,-0.436 0.476,-0.438 0.478,-0.439C0.475,-0.439 0.473,-0.439 0.472,-0.44C0.473,-0.441 0.474,-0.442 0.475,-0.443C0.476,-0.443 0.478,-0.443 0.479,-0.444C0.476,-0.445 0.475,-0.446 0.475,-0.446C0.476,-0.449 0.477,-0.451 0.478,-0.452C0.479,-0.453 0.48,-0.454 0.481,-0.455C0.482,-0.455 0.482,-0.455 0.483,-0.456C0.486,-0.463 0.489,-0.47 0.492,-0.477C0.495,-0.484 0.499,-0.49 0.504,-0.496C0.505,-0.497 0.505,-0.499 0.506,-0.5C0.507,-0.502 0.507,-0.504 0.507,-0.505L0.502,-0.505C0.504,-0.506 0.505,-0.507 0.506,-0.507L0.51,-0.511C0.51,-0.511 0.511,-0.512 0.512,-0.515C0.513,-0.516 0.515,-0.516 0.516,-0.516C0.517,-0.516 0.519,-0.516 0.52,-0.517C0.519,-0.518 0.518,-0.519 0.518,-0.52C0.518,-0.523 0.518,-0.525 0.519,-0.527C0.518,-0.527 0.517,-0.527 0.516,-0.528L0.512,-0.528C0.515,-0.531 0.517,-0.533 0.519,-0.534C0.52,-0.535 0.522,-0.537 0.525,-0.539C0.526,-0.542 0.527,-0.545 0.527,-0.548C0.527,-0.55 0.528,-0.553 0.53,-0.556C0.533,-0.561 0.535,-0.565 0.537,-0.568C0.538,-0.569 0.539,-0.57 0.539,-0.571C0.54,-0.574 0.541,-0.577 0.543,-0.58C0.545,-0.583 0.547,-0.586 0.548,-0.589C0.549,-0.591 0.55,-0.593 0.551,-0.594C0.552,-0.595 0.553,-0.597 0.554,-0.599C0.555,-0.6 0.557,-0.602 0.558,-0.604C0.559,-0.606 0.56,-0.608 0.559,-0.611C0.558,-0.612 0.558,-0.612 0.559,-0.613C0.56,-0.613 0.56,-0.613 0.56,-0.614C0.561,-0.617 0.563,-0.621 0.565,-0.624C0.567,-0.626 0.569,-0.63 0.57,-0.634C0.571,-0.637 0.573,-0.64 0.576,-0.642C0.576,-0.645 0.576,-0.646 0.575,-0.647C0.578,-0.651 0.58,-0.655 0.582,-0.66C0.584,-0.664 0.585,-0.668 0.584,-0.672C0.587,-0.676 0.589,-0.68 0.591,-0.683C0.59,-0.69 0.59,-0.697 0.593,-0.705C0.596,-0.712 0.598,-0.72 0.6,-0.727C0.601,-0.728 0.603,-0.73 0.605,-0.731C0.607,-0.732 0.609,-0.734 0.611,-0.736C0.616,-0.739 0.616,-0.742 0.613,-0.745C0.614,-0.746 0.615,-0.748 0.616,-0.749C0.617,-0.75 0.618,-0.752 0.62,-0.754L0.627,-0.754C0.626,-0.752 0.626,-0.75 0.627,-0.749C0.628,-0.748 0.628,-0.746 0.629,-0.744C0.633,-0.747 0.637,-0.749 0.641,-0.751C0.643,-0.75 0.645,-0.75 0.648,-0.749C0.65,-0.748 0.651,-0.746 0.652,-0.743C0.653,-0.738 0.656,-0.736 0.661,-0.736L0.661,-0.731C0.66,-0.73 0.66,-0.728 0.66,-0.726L0.663,-0.726C0.664,-0.725 0.665,-0.725 0.666,-0.725C0.667,-0.72 0.667,-0.716 0.668,-0.713C0.668,-0.71 0.668,-0.706 0.669,-0.703C0.67,-0.702 0.671,-0.702 0.672,-0.702C0.673,-0.702 0.673,-0.702 0.674,-0.701C0.673,-0.696 0.673,-0.692 0.674,-0.688C0.675,-0.688 0.676,-0.688 0.677,-0.687C0.678,-0.686 0.679,-0.686 0.68,-0.686C0.68,-0.685 0.68,-0.684 0.681,-0.683L0.681,-0.68C0.679,-0.677 0.675,-0.673 0.669,-0.667C0.67,-0.666 0.671,-0.664 0.671,-0.661C0.669,-0.66 0.667,-0.658 0.666,-0.657C0.665,-0.655 0.663,-0.653 0.662,-0.65C0.661,-0.648 0.659,-0.644 0.654,-0.638C0.653,-0.637 0.653,-0.637 0.652,-0.636C0.651,-0.636 0.651,-0.636 0.65,-0.635L0.65,-0.631C0.649,-0.631 0.649,-0.631 0.649,-0.63C0.648,-0.629 0.647,-0.627 0.646,-0.626C0.645,-0.625 0.643,-0.623 0.641,-0.622C0.642,-0.617 0.639,-0.612 0.632,-0.607L0.634,-0.605L0.635,-0.605C0.633,-0.602 0.63,-0.599 0.627,-0.596C0.625,-0.593 0.622,-0.591 0.621,-0.588C0.621,-0.587 0.621,-0.586 0.622,-0.586C0.622,-0.586 0.622,-0.585 0.621,-0.584C0.62,-0.583 0.619,-0.581 0.618,-0.579C0.617,-0.577 0.616,-0.575 0.615,-0.574C0.616,-0.574 0.617,-0.573 0.617,-0.571C0.616,-0.57 0.615,-0.57 0.614,-0.57L0.609,-0.57L0.599,-0.558C0.598,-0.557 0.597,-0.557 0.597,-0.557C0.596,-0.557 0.595,-0.557 0.594,-0.556L0.595,-0.556L0.595,-0.554C0.596,-0.555 0.597,-0.556 0.597,-0.557C0.597,-0.557 0.598,-0.557 0.599,-0.558C0.599,-0.557 0.6,-0.557 0.602,-0.557L0.596,-0.551L0.598,-0.551C0.6,-0.552 0.602,-0.554 0.603,-0.555C0.604,-0.556 0.606,-0.556 0.608,-0.557C0.605,-0.554 0.602,-0.55 0.6,-0.546C0.597,-0.542 0.594,-0.538 0.591,-0.535C0.59,-0.534 0.589,-0.533 0.588,-0.532C0.587,-0.531 0.585,-0.53 0.583,-0.529C0.585,-0.529 0.587,-0.528 0.588,-0.526L0.583,-0.526C0.58,-0.521 0.577,-0.517 0.574,-0.512C0.571,-0.511 0.57,-0.51 0.57,-0.509L0.571,-0.509C0.571,-0.51 0.572,-0.511 0.574,-0.512L0.578,-0.512C0.576,-0.509 0.575,-0.505 0.574,-0.502C0.573,-0.499 0.571,-0.495 0.568,-0.492C0.567,-0.493 0.565,-0.494 0.562,-0.494C0.562,-0.492 0.56,-0.489 0.556,-0.485L0.564,-0.485C0.563,-0.482 0.562,-0.48 0.561,-0.478C0.56,-0.476 0.559,-0.473 0.557,-0.47L0.557,-0.474C0.556,-0.475 0.556,-0.477 0.556,-0.478L0.545,-0.47C0.548,-0.471 0.55,-0.472 0.551,-0.472C0.552,-0.471 0.553,-0.47 0.554,-0.469C0.554,-0.469 0.555,-0.469 0.556,-0.468C0.552,-0.465 0.549,-0.464 0.546,-0.463C0.547,-0.462 0.547,-0.461 0.547,-0.46C0.546,-0.459 0.546,-0.457 0.545,-0.456C0.544,-0.454 0.543,-0.452 0.542,-0.45L0.541,-0.45C0.541,-0.451 0.541,-0.452 0.542,-0.453L0.542,-0.455L0.541,-0.455C0.54,-0.454 0.54,-0.452 0.539,-0.451C0.538,-0.45 0.536,-0.448 0.535,-0.445C0.536,-0.449 0.536,-0.451 0.537,-0.452C0.535,-0.45 0.534,-0.449 0.534,-0.449C0.533,-0.448 0.531,-0.446 0.528,-0.445C0.529,-0.444 0.531,-0.441 0.533,-0.438C0.531,-0.439 0.529,-0.439 0.526,-0.439C0.525,-0.438 0.525,-0.436 0.524,-0.435C0.523,-0.434 0.521,-0.432 0.52,-0.431L0.517,-0.431L0.517,-0.434L0.516,-0.433C0.516,-0.432 0.515,-0.432 0.514,-0.431L0.517,-0.431C0.518,-0.43 0.52,-0.43 0.521,-0.429C0.522,-0.428 0.523,-0.428 0.525,-0.427C0.526,-0.429 0.528,-0.431 0.531,-0.434C0.532,-0.432 0.532,-0.43 0.531,-0.429C0.529,-0.427 0.527,-0.425 0.526,-0.424C0.523,-0.425 0.52,-0.424 0.517,-0.422C0.518,-0.421 0.519,-0.42 0.519,-0.42C0.519,-0.419 0.519,-0.419 0.518,-0.418C0.517,-0.418 0.517,-0.418 0.516,-0.419C0.515,-0.418 0.515,-0.417 0.515,-0.416C0.515,-0.415 0.515,-0.414 0.514,-0.413C0.516,-0.415 0.517,-0.417 0.518,-0.418C0.521,-0.418 0.522,-0.417 0.522,-0.416C0.521,-0.413 0.519,-0.41 0.517,-0.407C0.515,-0.404 0.513,-0.401 0.511,-0.398C0.509,-0.399 0.509,-0.401 0.51,-0.404C0.512,-0.406 0.512,-0.407 0.509,-0.407C0.508,-0.406 0.508,-0.406 0.507,-0.405C0.507,-0.404 0.507,-0.402 0.506,-0.401L0.504,-0.401C0.504,-0.4 0.504,-0.4 0.503,-0.4C0.503,-0.399 0.503,-0.397 0.502,-0.396L0.502,-0.39C0.501,-0.391 0.5,-0.392 0.499,-0.392C0.498,-0.392 0.497,-0.393 0.496,-0.394C0.491,-0.391 0.489,-0.387 0.488,-0.384C0.487,-0.38 0.485,-0.376 0.483,-0.371C0.484,-0.372 0.485,-0.372 0.485,-0.373L0.487,-0.373L0.487,-0.377L0.496,-0.39C0.498,-0.388 0.498,-0.386 0.497,-0.383C0.495,-0.38 0.495,-0.378 0.497,-0.377L0.487,-0.368C0.484,-0.367 0.482,-0.366 0.481,-0.366C0.48,-0.365 0.478,-0.363 0.477,-0.36C0.481,-0.361 0.485,-0.363 0.489,-0.366C0.492,-0.368 0.496,-0.371 0.501,-0.374C0.5,-0.371 0.498,-0.368 0.497,-0.365C0.495,-0.362 0.493,-0.36 0.492,-0.358C0.491,-0.358 0.49,-0.357 0.488,-0.355C0.488,-0.357 0.487,-0.358 0.486,-0.359L0.485,-0.358C0.484,-0.358 0.484,-0.357 0.483,-0.356L0.483,-0.355C0.484,-0.354 0.484,-0.354 0.485,-0.354C0.486,-0.354 0.487,-0.354 0.488,-0.353C0.489,-0.352 0.49,-0.352 0.491,-0.351C0.491,-0.35 0.492,-0.349 0.493,-0.348C0.488,-0.347 0.483,-0.345 0.48,-0.344C0.479,-0.343 0.477,-0.341 0.476,-0.34C0.475,-0.338 0.475,-0.336 0.476,-0.334C0.477,-0.334 0.478,-0.334 0.479,-0.335L0.482,-0.335C0.481,-0.332 0.479,-0.33 0.477,-0.33C0.476,-0.33 0.474,-0.329 0.473,-0.328L0.467,-0.316C0.462,-0.313 0.459,-0.309 0.459,-0.304L0.459,-0.301C0.457,-0.296 0.455,-0.292 0.453,-0.286C0.45,-0.281 0.448,-0.276 0.445,-0.271L0.446,-0.27C0.445,-0.269 0.445,-0.269 0.446,-0.268C0.449,-0.269 0.451,-0.27 0.452,-0.271C0.452,-0.267 0.452,-0.264 0.451,-0.263C0.454,-0.264 0.455,-0.264 0.456,-0.265C0.455,-0.262 0.453,-0.26 0.452,-0.258C0.451,-0.256 0.449,-0.254 0.447,-0.252C0.447,-0.253 0.447,-0.254 0.448,-0.255L0.448,-0.258L0.441,-0.254C0.444,-0.254 0.446,-0.253 0.447,-0.252C0.446,-0.249 0.445,-0.247 0.445,-0.246C0.446,-0.243 0.445,-0.239 0.442,-0.232C0.441,-0.233 0.439,-0.233 0.438,-0.233C0.439,-0.234 0.44,-0.235 0.441,-0.236C0.441,-0.237 0.442,-0.239 0.443,-0.24L0.433,-0.24C0.431,-0.239 0.429,-0.238 0.427,-0.235L0.428,-0.234C0.428,-0.233 0.429,-0.233 0.43,-0.232C0.428,-0.23 0.427,-0.228 0.427,-0.227C0.426,-0.226 0.425,-0.224 0.424,-0.222C0.424,-0.221 0.424,-0.219 0.423,-0.218C0.422,-0.217 0.422,-0.215 0.423,-0.214L0.418,-0.209C0.417,-0.205 0.417,-0.201 0.418,-0.198C0.417,-0.198 0.415,-0.197 0.412,-0.196C0.414,-0.196 0.416,-0.195 0.417,-0.194C0.417,-0.192 0.417,-0.19 0.418,-0.187C0.419,-0.184 0.417,-0.181 0.413,-0.178C0.412,-0.177 0.41,-0.176 0.408,-0.175C0.406,-0.175 0.404,-0.174 0.403,-0.173C0.403,-0.167 0.403,-0.163 0.404,-0.161C0.405,-0.16 0.406,-0.16 0.406,-0.159C0.407,-0.158 0.408,-0.156 0.409,-0.155C0.408,-0.152 0.406,-0.149 0.404,-0.146C0.402,-0.142 0.402,-0.139 0.403,-0.136L0.402,-0.136L0.4,-0.134C0.401,-0.133 0.402,-0.133 0.403,-0.132C0.403,-0.131 0.404,-0.131 0.405,-0.13L0.395,-0.12C0.39,-0.107 0.389,-0.097 0.392,-0.092L0.386,-0.086C0.386,-0.084 0.387,-0.081 0.388,-0.077C0.387,-0.076 0.385,-0.076 0.384,-0.076C0.383,-0.076 0.381,-0.075 0.38,-0.074C0.381,-0.067 0.383,-0.059 0.384,-0.05C0.381,-0.05 0.379,-0.05 0.378,-0.049C0.377,-0.049 0.375,-0.048 0.371,-0.046L0.38,-0.046C0.381,-0.045 0.381,-0.043 0.381,-0.042L0.375,-0.032L0.371,-0.036C0.372,-0.037 0.372,-0.038 0.373,-0.039C0.374,-0.04 0.374,-0.04 0.375,-0.041C0.374,-0.042 0.372,-0.042 0.37,-0.042C0.368,-0.042 0.366,-0.041 0.363,-0.04C0.362,-0.04 0.361,-0.04 0.36,-0.039C0.359,-0.038 0.357,-0.038 0.356,-0.037C0.358,-0.036 0.36,-0.036 0.361,-0.036L0.36,-0.036ZM0.397,-0.252C0.394,-0.25 0.393,-0.247 0.393,-0.244C0.395,-0.245 0.396,-0.247 0.396,-0.248C0.396,-0.249 0.396,-0.251 0.397,-0.252C0.4,-0.253 0.401,-0.254 0.4,-0.254L0.4,-0.256C0.399,-0.255 0.398,-0.253 0.397,-0.252ZM0.372,-0.166C0.373,-0.167 0.375,-0.169 0.376,-0.171C0.377,-0.172 0.376,-0.174 0.375,-0.175L0.365,-0.164C0.367,-0.163 0.37,-0.16 0.373,-0.157C0.374,-0.159 0.374,-0.161 0.374,-0.162C0.373,-0.163 0.373,-0.165 0.372,-0.166ZM0.454,-0.305C0.451,-0.304 0.45,-0.303 0.45,-0.302C0.45,-0.301 0.45,-0.3 0.449,-0.299C0.45,-0.298 0.45,-0.297 0.45,-0.296C0.451,-0.298 0.452,-0.3 0.452,-0.301C0.452,-0.302 0.453,-0.303 0.454,-0.305ZM0.508,-0.413C0.509,-0.414 0.51,-0.416 0.51,-0.417C0.511,-0.418 0.512,-0.42 0.513,-0.421C0.512,-0.42 0.51,-0.419 0.509,-0.419C0.508,-0.419 0.507,-0.419 0.506,-0.418C0.506,-0.416 0.507,-0.414 0.508,-0.413ZM0.374,-0.085C0.375,-0.084 0.376,-0.083 0.376,-0.082C0.375,-0.081 0.375,-0.08 0.375,-0.079L0.381,-0.088C0.38,-0.087 0.379,-0.086 0.378,-0.086C0.377,-0.086 0.375,-0.086 0.374,-0.085ZM0.436,-0.265C0.438,-0.268 0.439,-0.269 0.439,-0.27L0.435,-0.27C0.435,-0.269 0.435,-0.269 0.436,-0.268C0.437,-0.267 0.437,-0.266 0.436,-0.265ZM0.384,-0.215L0.384,-0.209C0.387,-0.21 0.388,-0.211 0.388,-0.211C0.388,-0.212 0.388,-0.212 0.387,-0.213C0.386,-0.214 0.385,-0.214 0.384,-0.215ZM0.468,-0.335L0.467,-0.335C0.467,-0.333 0.466,-0.332 0.464,-0.331C0.465,-0.33 0.466,-0.33 0.467,-0.33C0.467,-0.331 0.467,-0.332 0.468,-0.333L0.468,-0.335ZM0.412,-0.28C0.411,-0.277 0.41,-0.276 0.41,-0.277L0.41,-0.274C0.411,-0.275 0.412,-0.275 0.412,-0.275C0.412,-0.276 0.412,-0.276 0.411,-0.277C0.411,-0.278 0.411,-0.279 0.412,-0.28ZM0.382,-0.194C0.381,-0.193 0.381,-0.192 0.381,-0.192L0.381,-0.191C0.381,-0.19 0.381,-0.19 0.382,-0.19C0.382,-0.19 0.382,-0.189 0.381,-0.188L0.383,-0.19L0.383,-0.192C0.382,-0.192 0.382,-0.193 0.382,-0.194ZM0.464,-0.326C0.464,-0.325 0.463,-0.325 0.462,-0.325L0.464,-0.323L0.464,-0.326ZM0.352,-0.094L0.353,-0.094C0.353,-0.095 0.353,-0.096 0.354,-0.097L0.353,-0.097C0.352,-0.096 0.352,-0.095 0.352,-0.094ZM0.476,-0.356C0.477,-0.357 0.477,-0.358 0.476,-0.358L0.473,-0.355L0.475,-0.355L0.476,-0.356ZM0.442,-0.277C0.443,-0.278 0.444,-0.278 0.444,-0.278L0.443,-0.28C0.442,-0.28 0.442,-0.279 0.442,-0.278L0.442,-0.277ZM0.447,-0.284L0.448,-0.286L0.446,-0.286L0.446,-0.285C0.446,-0.284 0.446,-0.284 0.447,-0.284ZM0.438,-0.233L0.438,-0.232L0.434,-0.228C0.435,-0.227 0.435,-0.226 0.435,-0.226C0.436,-0.226 0.437,-0.226 0.438,-0.227C0.437,-0.224 0.435,-0.221 0.434,-0.218C0.432,-0.215 0.43,-0.211 0.428,-0.208L0.428,-0.205L0.42,-0.205C0.423,-0.208 0.425,-0.212 0.427,-0.215C0.428,-0.218 0.43,-0.221 0.431,-0.224L0.431,-0.229C0.434,-0.234 0.436,-0.235 0.438,-0.233ZM0.467,-0.311C0.468,-0.312 0.469,-0.313 0.472,-0.314C0.473,-0.315 0.473,-0.316 0.472,-0.317C0.471,-0.318 0.471,-0.319 0.472,-0.32C0.473,-0.319 0.474,-0.319 0.474,-0.319C0.474,-0.318 0.474,-0.318 0.475,-0.318C0.474,-0.315 0.474,-0.313 0.473,-0.312C0.472,-0.311 0.47,-0.311 0.467,-0.311ZM0.464,-0.298C0.466,-0.295 0.466,-0.292 0.464,-0.289C0.463,-0.29 0.461,-0.291 0.46,-0.294L0.464,-0.298ZM0.404,-0.161C0.405,-0.165 0.406,-0.168 0.405,-0.17C0.408,-0.169 0.409,-0.168 0.408,-0.167C0.408,-0.166 0.408,-0.164 0.407,-0.162C0.406,-0.162 0.405,-0.162 0.404,-0.161ZM0.386,-0.067C0.387,-0.066 0.388,-0.066 0.388,-0.066C0.388,-0.065 0.388,-0.065 0.389,-0.064C0.386,-0.064 0.385,-0.065 0.386,-0.067ZM0.503,-0.378L0.498,-0.378C0.498,-0.379 0.498,-0.379 0.499,-0.38L0.504,-0.38C0.503,-0.379 0.503,-0.379 0.503,-0.378ZM0.396,-0.11C0.397,-0.112 0.397,-0.114 0.398,-0.115C0.398,-0.116 0.398,-0.118 0.399,-0.119C0.4,-0.116 0.399,-0.113 0.396,-0.11ZM0.464,-0.298C0.461,-0.298 0.46,-0.299 0.462,-0.302C0.465,-0.302 0.465,-0.301 0.464,-0.298ZM0.512,-0.392L0.509,-0.392C0.509,-0.391 0.509,-0.391 0.508,-0.391C0.507,-0.392 0.507,-0.393 0.508,-0.394C0.509,-0.394 0.51,-0.394 0.511,-0.395C0.511,-0.394 0.511,-0.393 0.512,-0.392ZM0.381,-0.042C0.382,-0.043 0.383,-0.044 0.383,-0.045C0.383,-0.046 0.383,-0.047 0.384,-0.048C0.385,-0.047 0.386,-0.046 0.385,-0.045C0.384,-0.043 0.382,-0.043 0.381,-0.042ZM0.426,-0.2L0.424,-0.2C0.423,-0.199 0.422,-0.199 0.421,-0.199L0.421,-0.2C0.422,-0.2 0.423,-0.2 0.424,-0.201C0.425,-0.202 0.426,-0.202 0.427,-0.202L0.426,-0.2ZM0.363,-0.04L0.366,-0.04C0.365,-0.037 0.363,-0.036 0.36,-0.036L0.361,-0.036C0.361,-0.036 0.362,-0.037 0.363,-0.04ZM0.473,-0.328L0.478,-0.328C0.475,-0.325 0.473,-0.325 0.473,-0.328ZM0.457,-0.419C0.457,-0.42 0.457,-0.42 0.458,-0.421C0.459,-0.421 0.459,-0.421 0.459,-0.422L0.46,-0.421C0.458,-0.42 0.457,-0.419 0.457,-0.419ZM0.545,-0.449C0.545,-0.448 0.544,-0.446 0.543,-0.445L0.541,-0.445C0.542,-0.446 0.543,-0.448 0.543,-0.449L0.545,-0.449ZM0.496,-0.497C0.497,-0.496 0.497,-0.495 0.497,-0.494L0.496,-0.493C0.495,-0.494 0.495,-0.495 0.494,-0.496L0.495,-0.496C0.496,-0.496 0.496,-0.496 0.496,-0.497ZM0.416,-0.166C0.415,-0.167 0.415,-0.167 0.416,-0.168L0.417,-0.169C0.417,-0.168 0.417,-0.168 0.418,-0.168L0.418,-0.166L0.416,-0.166Z" style="fill:white;fill-rule:nonzero;"/>
                </g>
            </g>
        </g>
    </g>
</svg>
