<?xml version="1.0" encoding="UTF-8" standalone="no"?><!DOCTYPE svg PUBLIC "-//W3C//DTD SVG 1.1//EN" "http://www.w3.org/Graphics/SVG/1.1/DTD/svg11.dtd"><svg width="100%" height="100%" viewBox="0 0 1840 918" version="1.1" xmlns="http://www.w3.org/2000/svg" xmlns:xlink="http://www.w3.org/1999/xlink" xml:space="preserve" xmlns:serif="http://www.serif.com/" style="fill-rule:evenodd;clip-rule:evenodd;stroke-linejoin:round;stroke-miterlimit:2;"><g><path d="M0,773.224c0,-45.312 11.328,-85.546 33.984,-120.703c22.657,-35.156 50.782,-65.82 84.375,-91.992c33.594,-26.172 69.922,-48.437 108.985,-66.797c39.062,-18.359 75.39,-33.594 108.984,-45.703c33.594,-12.109 61.719,-21.875 84.375,-29.297c22.656,-7.422 33.985,-13.476 33.985,-18.164c0,-27.344 -1.368,-54.101 -4.102,-80.273c-2.734,-26.172 -5.664,-52.539 -8.789,-79.102c-3.125,-26.562 -6.055,-52.93 -8.789,-79.101c-2.735,-26.172 -4.102,-52.149 -4.102,-77.93l0,-76.172c32.032,-11.719 54.883,-10.547 68.555,3.516c13.672,14.062 15.82,38.281 6.445,72.656c3.125,17.187 7.422,44.141 12.891,80.859c5.469,36.719 11.523,78.125 18.164,124.219c6.641,46.094 13.672,94.531 21.094,145.313c7.422,50.781 14.453,99.414 21.093,145.898c6.641,46.484 12.305,87.891 16.993,124.219c4.687,36.328 8.203,63.476 10.546,81.445c0.782,3.906 1.563,11.523 2.344,22.852c0.782,11.328 1.367,23.437 1.758,36.328c0.391,12.89 0.781,24.804 1.172,35.742c0.391,10.937 0.586,18.75 0.586,23.437c-29.688,0 -49.805,-1.171 -60.352,-3.515c-10.547,-2.344 -17.187,-7.031 -19.922,-14.063c-2.734,-7.031 -4.101,-17.187 -4.101,-30.468c0,-13.282 -3.906,-31.641 -11.719,-55.079c-28.906,22.657 -56.25,41.407 -82.031,56.25c-25.781,14.844 -51.563,26.758 -77.344,35.743c-25.781,8.984 -51.758,15.234 -77.93,18.75c-26.171,3.515 -54.101,5.273 -83.789,5.273c-25,0 -49.023,-2.148 -72.07,-6.445c-23.047,-4.297 -43.555,-11.914 -61.523,-22.852c-17.969,-10.937 -32.422,-25.781 -43.36,-44.531c-10.937,-18.75 -16.406,-42.188 -16.406,-70.313Zm101.953,-24.609c0,12.5 2.735,22.656 8.203,30.469c5.469,7.812 12.5,14.453 21.094,19.922c8.594,5.468 17.773,9.179 27.539,11.132c9.766,1.954 19.336,2.93 28.711,2.93c27.344,0 56.836,-5.273 88.477,-15.82c31.64,-10.547 60.937,-25.391 87.89,-44.531c26.953,-19.141 49.219,-41.993 66.797,-68.555c17.578,-26.563 26.367,-55.469 26.367,-86.719c0,-24.219 -4.297,-41.015 -12.89,-50.39c-8.594,-9.375 -25,-14.063 -49.219,-14.063c-25,0 -54.102,5.859 -87.305,17.578c-33.203,11.719 -65.234,27.344 -96.094,46.875c-30.859,19.531 -56.836,42.383 -77.929,68.555c-21.094,26.172 -31.641,53.711 -31.641,82.617Z" style="fill:#fff;fill-rule:nonzero;"/><path d="M653.906,773.224c0,-45.312 11.328,-85.546 33.985,-120.703c22.656,-35.156 50.781,-65.82 84.375,-91.992c33.593,-26.172 69.922,-48.437 108.984,-66.797c39.063,-18.359 75.391,-33.594 108.984,-45.703c33.594,-12.109 61.719,-21.875 84.375,-29.297c22.657,-7.422 33.985,-13.476 33.985,-18.164c0,-27.344 -1.367,-54.101 -4.102,-80.273c-2.734,-26.172 -5.664,-52.539 -8.789,-79.102c-3.125,-26.562 -6.055,-52.93 -8.789,-79.101c-2.734,-26.172 -4.101,-52.149 -4.101,-77.93l0,-76.172c32.031,-11.719 54.882,-10.547 68.554,3.516c13.672,14.062 15.821,38.281 6.446,72.656c3.125,17.187 7.421,44.141 12.89,80.859c5.469,36.719 11.524,78.125 18.164,124.219c6.641,46.094 13.672,94.531 21.094,145.313c7.422,50.781 14.453,99.414 21.094,145.898c6.64,46.484 12.304,87.891 16.992,124.219c4.687,36.328 8.203,63.476 10.547,81.445c0.781,3.906 1.562,11.523 2.343,22.852c0.782,11.328 1.368,23.437 1.758,36.328c0.391,12.89 0.782,24.804 1.172,35.742c0.391,10.937 0.586,18.75 0.586,23.437c-29.687,0 -49.805,-1.171 -60.351,-3.515c-10.547,-2.344 -17.188,-7.031 -19.922,-14.063c-2.735,-7.031 -4.102,-17.187 -4.102,-30.468c0,-13.282 -3.906,-31.641 -11.719,-55.079c-28.906,22.657 -56.25,41.407 -82.031,56.25c-25.781,14.844 -51.562,26.758 -77.344,35.743c-25.781,8.984 -51.757,15.234 -77.929,18.75c-26.172,3.515 -54.102,5.273 -83.789,5.273c-25,0 -49.024,-2.148 -72.071,-6.445c-23.047,-4.297 -43.554,-11.914 -61.523,-22.852c-17.969,-10.937 -32.422,-25.781 -43.36,-44.531c-10.937,-18.75 -16.406,-42.188 -16.406,-70.313Zm101.953,-24.609c0,12.5 2.735,22.656 8.203,30.469c5.469,7.812 12.501,14.453 21.094,19.922c8.594,5.468 17.774,9.179 27.539,11.132c9.766,1.954 19.336,2.93 28.711,2.93c27.344,0 56.836,-5.273 88.477,-15.82c31.64,-10.547 60.937,-25.391 87.89,-44.531c26.954,-19.141 49.219,-41.993 66.797,-68.555c17.578,-26.563 26.367,-55.469 26.367,-86.719c0,-24.219 -4.296,-41.015 -12.89,-50.39c-8.594,-9.375 -25,-14.063 -49.219,-14.063c-25,0 -54.101,5.859 -87.305,17.578c-33.203,11.719 -65.234,27.344 -96.093,46.875c-30.86,19.531 -56.836,42.383 -77.93,68.555c-21.094,26.172 -31.641,53.711 -31.641,82.617Z" style="fill:#fff;fill-rule:nonzero;"/><path d="M1399.22,530.646c0,-2.343 0.39,-6.836 1.172,-13.476c0.781,-6.641 1.171,-10.352 1.171,-11.133c12.501,0 29.493,-0.977 50.977,-2.93c21.484,-1.953 45.117,-3.906 70.898,-5.859c25.782,-1.953 52.54,-4.102 80.274,-6.445c27.734,-2.344 54.102,-3.907 79.101,-4.688c25.001,-0.781 48.047,-1.172 69.141,-1.172c21.094,0 37.5,1.172 49.219,3.516c14.062,0 24.023,1.562 29.883,4.687c5.859,3.125 8.789,13.672 8.789,31.641c-23.438,15.625 -52.735,27.148 -87.891,34.57c-35.156,7.422 -71.094,12.696 -107.812,15.821c-36.719,3.125 -72.461,4.687 -107.227,4.687c-34.766,0 -63.086,0.391 -84.961,1.172c-21.094,1.562 -35.156,-2.734 -42.187,-12.891c-7.032,-10.156 -10.547,-22.656 -10.547,-37.5Z" style="fill:#fff;fill-rule:nonzero;"/></g></svg>