<?xml version="1.0" encoding="UTF-8" standalone="no"?><!DOCTYPE svg PUBLIC "-//W3C//DTD SVG 1.1//EN" "http://www.w3.org/Graphics/SVG/1.1/DTD/svg11.dtd"><svg width="100%" height="100%" viewBox="0 0 50 50" version="1.1" xmlns="http://www.w3.org/2000/svg" xmlns:xlink="http://www.w3.org/1999/xlink" xml:space="preserve" xmlns:serif="http://www.serif.com/" style="fill-rule:evenodd;clip-rule:evenodd;stroke-miterlimit:10;"><g><path d="M24.937,45.125c-11.149,0 -20.188,-9.039 -20.188,-20.188c0,-11.149 9.039,-20.188 20.188,-20.188c11.149,0 20.188,9.039 20.188,20.188c0,11.149 -9.039,20.188 -20.188,20.188Z" style="fill:none;fill-rule:nonzero;stroke:#7fee7f;stroke-width:0.95px;"/><path d="M30.217,38.186l-8.885,0c0.042,-1.139 0.012,-2.28 0.012,-3.381c-0.825,0.038 -1.613,0.142 -2.392,0.097c-1.719,-0.099 -3.039,-0.832 -3.724,-2.514c-0.406,-0.997 -1.017,-1.85 -1.969,-2.419c-0.178,-0.106 -0.333,-0.263 -0.469,-0.422c-0.178,-0.207 -0.145,-0.42 0.136,-0.477c0.284,-0.058 0.593,-0.098 0.873,-0.046c1.097,0.206 1.856,0.895 2.437,1.81c1.149,1.811 2.917,2.366 4.906,1.529c0.111,-0.046 0.252,-0.159 0.273,-0.262c0.16,-0.802 0.46,-1.533 1.064,-2.174c-0.671,-0.125 -1.293,-0.216 -1.903,-0.357c-1.756,-0.407 -3.334,-1.138 -4.488,-2.59c-0.941,-1.184 -1.371,-2.571 -1.569,-4.046c-0.31,-2.312 -0.033,-4.475 1.554,-6.322c0.081,-0.093 0.124,-0.285 0.088,-0.401c-0.397,-1.299 -0.336,-2.587 0.058,-3.871c0.206,-0.675 0.264,-0.708 0.952,-0.614c0.042,0.005 0.083,0.016 0.125,0.023c1.38,0.228 2.568,0.897 3.737,1.614c0.158,0.096 0.397,0.156 0.57,0.114c2.794,-0.678 5.583,-0.675 8.377,0.003c0.162,0.039 0.379,-0.017 0.534,-0.098c0.636,-0.333 1.245,-0.719 1.889,-1.034c0.75,-0.367 1.539,-0.642 2.389,-0.627c0.148,0.003 0.379,0.145 0.428,0.276c0.512,1.355 0.619,2.735 0.212,4.145c-0.043,0.151 0.021,0.365 0.102,0.514c0.402,0.737 0.964,1.418 1.218,2.201c0.776,2.385 0.493,4.748 -0.563,6.99c-0.967,2.055 -2.761,3.096 -4.885,3.633c-0.718,0.181 -1.453,0.292 -2.227,0.444c1.015,1.059 1.174,2.352 1.156,3.706c-0.019,1.397 -0.015,3.159 -0.016,4.556Z" style="fill:#7fee7f;"/></g></svg>