<?xml version="1.0" encoding="UTF-8" standalone="no"?><!DOCTYPE svg PUBLIC "-//W3C//DTD SVG 1.1//EN" "http://www.w3.org/Graphics/SVG/1.1/DTD/svg11.dtd"><svg width="100%" height="100%" viewBox="0 0 50 50" version="1.1" xmlns="http://www.w3.org/2000/svg" xmlns:xlink="http://www.w3.org/1999/xlink" xml:space="preserve" xmlns:serif="http://www.serif.com/" style="fill-rule:evenodd;clip-rule:evenodd;stroke-miterlimit:10;"><g><g><path d="M24.937,45.125c-11.149,0 -20.188,-9.039 -20.188,-20.188c0,-11.149 9.039,-20.188 20.188,-20.188c11.149,0 20.188,9.039 20.188,20.188c0,11.149 -9.039,20.188 -20.188,20.188Z" style="fill:none;fill-rule:nonzero;stroke:#7fee7f;stroke-width:0.95px;"/></g><g><path d="M20.192,16.959c0,1.154 -0.936,2.09 -2.09,2.09c-1.154,0 -2.09,-0.936 -2.09,-2.09c0,-1.154 0.936,-2.09 2.09,-2.09c1.154,0 2.09,0.936 2.09,2.09m-4.18,16.352l4.058,0l0,-12.209l-4.058,0l0,12.209Zm18.695,-7.002l0,7.002l-4.06,0l0,-6.532c0,-1.641 -0.586,-2.761 -2.056,-2.761c-1.121,0 -1.787,0.755 -2.082,1.485c-0.106,0.261 -0.134,0.623 -0.134,0.989l0,6.819l-4.06,0c0,0 0.054,-11.064 0,-12.209l4.06,0l0,1.73c-0.009,0.014 -0.02,0.027 -0.027,0.04l0.027,0l0,-0.04c0.54,-0.831 1.502,-2.017 3.658,-2.017c2.672,0 4.674,1.745 4.674,5.494" style="fill:#7fee7f;fill-rule:nonzero;"/></g></g></svg>