<?xml version="1.0" encoding="UTF-8" standalone="no"?>
<!DOCTYPE svg PUBLIC "-//W3C//DTD SVG 1.1//EN" "http://www.w3.org/Graphics/SVG/1.1/DTD/svg11.dtd">
<svg width="100%" height="100%" viewBox="0 0 50 50" version="1.1" xmlns="http://www.w3.org/2000/svg" xmlns:xlink="http://www.w3.org/1999/xlink" xml:space="preserve" xmlns:serif="http://www.serif.com/" style="fill-rule:evenodd;clip-rule:evenodd;stroke-miterlimit:10;">
    <g transform="matrix(1,0,0,1,-104.251,-147.251)">
        <g>
            <g transform="matrix(0.472568,0,0,0.472568,129.188,152)">
                <path d="M0,85.438C-23.593,85.438 -42.719,66.312 -42.719,42.719C-42.719,19.126 -23.593,0 0,0C23.593,0 42.719,19.126 42.719,42.719C42.719,66.312 23.593,85.438 0,85.438Z" style="fill:none;fill-rule:nonzero;stroke:rgb(0,128,0);stroke-width:2px;"/>
            </g>
            <g transform="matrix(0.472568,0,0,0.472568,124.443,178.472)">
                <path d="M0,-30.18C0,-27.738 -1.98,-25.758 -4.423,-25.758C-6.864,-25.758 -8.845,-27.738 -8.845,-30.18C-8.845,-32.622 -6.864,-34.602 -4.423,-34.602C-1.98,-34.602 0,-32.622 0,-30.18M-8.845,4.422L-0.257,4.422L-0.257,-21.414L-8.845,-21.414L-8.845,4.422ZM30.715,-10.394L30.715,4.422L22.125,4.422L22.125,-9.401C22.125,-12.872 20.885,-15.242 17.774,-15.242C15.401,-15.242 13.991,-13.646 13.368,-12.101C13.143,-11.549 13.084,-10.782 13.084,-10.007L13.084,4.422L4.493,4.422C4.493,4.422 4.608,-18.99 4.493,-21.414L13.084,-21.414L13.084,-17.753C13.066,-17.723 13.042,-17.696 13.026,-17.668L13.084,-17.668L13.084,-17.753C14.226,-19.51 16.262,-22.021 20.825,-22.021C26.478,-22.021 30.715,-18.328 30.715,-10.394" style="fill:rgb(0,128,0);fill-rule:nonzero;"/>
            </g>
        </g>
    </g>
</svg>
